<?xml version="1.0" encoding="utf-8" standalone="no"?>
<!DOCTYPE svg PUBLIC "-//W3C//DTD SVG 1.1//EN"
  "http://www.w3.org/Graphics/SVG/1.1/DTD/svg11.dtd">
<!-- Created with matplotlib (https://matplotlib.org/) -->
<svg height="352.786557pt" version="1.1" viewBox="0 0 512.249653 352.786557" width="512.249653pt" xmlns="http://www.w3.org/2000/svg" xmlns:xlink="http://www.w3.org/1999/xlink">
 <defs>
  <style type="text/css">
*{stroke-linecap:butt;stroke-linejoin:round;}
  </style>
 </defs>
 <g id="figure_1">
  <g id="patch_1">
   <path d="M 0 352.786557 
L 512.249653 352.786557 
L 512.249653 0 
L 0 0 
z
" style="fill:#ffffff;"/>
  </g>
  <g id="axes_1">
   <g id="patch_2">
    <path d="M 56.669653 318.661876 
L 508.649653 318.661876 
L 508.649653 19.285876 
L 56.669653 19.285876 
z
" style="fill:#ffffff;"/>
   </g>
   <g id="matplotlib.axis_1">
    <g id="xtick_1">
     <g id="line2d_1">
      <path clip-path="url(#pefe8be1a68)" d="M 65.917843 318.661876 
L 65.917843 19.285876 
" style="fill:none;stroke:#b0b0b0;stroke-linecap:square;stroke-width:0.5;"/>
     </g>
     <g id="line2d_2">
      <defs>
       <path d="M 0 0 
L 0 -3 
" id="m240cb68caa" style="stroke:#000000;stroke-width:0.5;"/>
      </defs>
      <g>
       <use style="stroke:#000000;stroke-width:0.5;" x="65.917843" xlink:href="#m240cb68caa" y="318.661876"/>
      </g>
     </g>
     <g id="line2d_3">
      <defs>
       <path d="M 0 0 
L 0 3 
" id="md3a42705b7" style="stroke:#000000;stroke-width:0.5;"/>
      </defs>
      <g>
       <use style="stroke:#000000;stroke-width:0.5;" x="65.917843" xlink:href="#md3a42705b7" y="19.285876"/>
      </g>
     </g>
     <g id="text_1">
      <!-- $-10.0$ -->
      <defs>
       <path d="M 65.90625 23 
C 67.59375 23 69.40625 23 69.40625 25 
C 69.40625 27 67.59375 27 65.90625 27 
L 11.796875 27 
C 10.09375 27 8.296875 27 8.296875 25 
C 8.296875 23 10.09375 23 11.796875 23 
z
" id="CMSY10-0"/>
       <path d="M 26.59375 63.40625 
C 26.59375 65.5 26.5 65.5 25.09375 65.5 
C 21.203125 61.1875 15.296875 59.796875 9.703125 59.796875 
C 9.40625 59.796875 8.90625 59.796875 8.796875 59.5 
C 8.703125 59.296875 8.703125 59.09375 8.703125 57 
C 11.796875 57 17 57.59375 21 59.984375 
L 21 7.203125 
C 21 3.6875 20.796875 2.5 12.203125 2.5 
L 9.203125 2.5 
L 9.203125 0 
C 14 0 19 0 23.796875 0 
C 28.59375 0 33.59375 0 38.40625 0 
L 38.40625 2.5 
L 35.40625 2.5 
C 26.796875 2.5 26.59375 3.59375 26.59375 7.15625 
z
" id="CMR17-49"/>
       <path d="M 42 31.640625 
C 42 37.75 41.90625 48.125 37.703125 56.109375 
C 34 63.109375 28.09375 65.59375 22.90625 65.59375 
C 18.09375 65.59375 12 63.40625 8.203125 56.203125 
C 4.203125 48.71875 3.796875 39.4375 3.796875 31.640625 
C 3.796875 25.953125 3.90625 17.28125 7 9.671875 
C 11.296875 -0.609375 19 -2 22.90625 -2 
C 27.5 -2 34.5 -0.109375 38.59375 9.375 
C 41.59375 16.28125 42 24.359375 42 31.640625 
z
M 22.90625 -0.40625 
C 16.5 -0.40625 12.703125 5.078125 11.296875 12.6875 
C 10.203125 18.5625 10.203125 27.15625 10.203125 32.75 
C 10.203125 40.4375 10.203125 46.828125 11.5 52.921875 
C 13.40625 61.390625 19 64 22.90625 64 
C 27 64 32.296875 61.296875 34.203125 53.125 
C 35.5 47.4375 35.59375 40.734375 35.59375 32.75 
C 35.59375 26.25 35.59375 18.265625 34.40625 12.375 
C 32.296875 1.484375 26.40625 -0.40625 22.90625 -0.40625 
z
" id="CMR17-48"/>
       <path d="M 18.40625 4.796875 
C 18.40625 7.6875 16 9.671875 13.59375 9.671875 
C 10.703125 9.671875 8.703125 7.28125 8.703125 4.890625 
C 8.703125 2 11.09375 0 13.5 0 
C 16.40625 0 18.40625 2.390625 18.40625 4.796875 
z
" id="CMMI12-58"/>
      </defs>
      <g transform="translate(49.608733 331.155905)scale(0.13 -0.13)">
       <use transform="scale(0.996264)" xlink:href="#CMSY10-0"/>
       <use transform="translate(77.487468 0)scale(0.996264)" xlink:href="#CMR17-49"/>
       <use transform="translate(123.177945 0)scale(0.996264)" xlink:href="#CMR17-48"/>
       <use transform="translate(168.868422 0)scale(0.996264)" xlink:href="#CMMI12-58"/>
       <use transform="translate(195.965599 0)scale(0.996264)" xlink:href="#CMR17-48"/>
      </g>
     </g>
    </g>
    <g id="xtick_2">
     <g id="line2d_4">
      <path clip-path="url(#pefe8be1a68)" d="M 124.797476 318.661876 
L 124.797476 19.285876 
" style="fill:none;stroke:#b0b0b0;stroke-linecap:square;stroke-width:0.5;"/>
     </g>
     <g id="line2d_5">
      <g>
       <use style="stroke:#000000;stroke-width:0.5;" x="124.797476" xlink:href="#m240cb68caa" y="318.661876"/>
      </g>
     </g>
     <g id="line2d_6">
      <g>
       <use style="stroke:#000000;stroke-width:0.5;" x="124.797476" xlink:href="#md3a42705b7" y="19.285876"/>
      </g>
     </g>
     <g id="text_2">
      <!-- $-7.5$ -->
      <defs>
       <path d="M 45.09375 61.578125 
L 45.09375 63.765625 
L 21.59375 63.765625 
C 9.90625 63.765625 9.703125 65.078125 9.296875 67 
L 7.5 67 
L 4.59375 48.34375 
L 6.40625 48.34375 
C 6.703125 50.234375 7.40625 55.3125 8.59375 57.203125 
C 9.203125 58 16.59375 58 18.296875 58 
L 40.296875 58 
L 29.203125 41.578125 
C 21.796875 30.53125 16.703125 15.609375 16.703125 2.578125 
C 16.703125 1.390625 16.703125 -2 20.296875 -2 
C 23.90625 -2 23.90625 1.390625 23.90625 2.671875 
L 23.90625 7.265625 
C 23.90625 23.5625 26.703125 34.3125 31.296875 41.1875 
z
" id="CMR17-55"/>
       <path d="M 11.40625 57.6875 
C 12.40625 57.28125 16.5 56 20.703125 56 
C 30 56 35.09375 61.109375 38 64.0625 
C 38 64.953125 38 65.5 37.40625 65.5 
C 37.296875 65.5 37.09375 65.5 36.296875 65.046875 
C 32.796875 63.40625 28.703125 62.078125 23.703125 62.078125 
C 20.703125 62.078125 16.203125 62.484375 11.296875 64.671875 
C 10.203125 65.171875 10 65.171875 9.90625 65.171875 
C 9.40625 65.171875 9.296875 65.0625 9.296875 63.078125 
L 9.296875 34.421875 
C 9.296875 32.640625 9.296875 32.140625 10.296875 32.140625 
C 10.796875 32.140625 11 32.34375 11.5 33.03125 
C 14.703125 37.515625 19.09375 39.40625 24.09375 39.40625 
C 27.59375 39.40625 35.09375 37.21875 35.09375 20.140625 
C 35.09375 16.953125 35.09375 11.171875 32.09375 6.578125 
C 29.59375 2.484375 25.703125 0.390625 21.40625 0.390625 
C 14.796875 0.390625 8.09375 5 6.296875 12.71875 
C 6.703125 12.609375 7.5 12.421875 7.90625 12.421875 
C 9.203125 12.421875 11.703125 13.125 11.703125 16.21875 
C 11.703125 18.90625 9.796875 20 7.90625 20 
C 5.59375 20 4.09375 18.59375 4.09375 15.796875 
C 4.09375 7.09375 11 -2 21.59375 -2 
C 31.90625 -2 41.703125 6.875 41.703125 19.75 
C 41.703125 31.71875 33.90625 41 24.203125 41 
C 19.09375 41 14.796875 39.109375 11.40625 35.53125 
z
" id="CMR17-53"/>
      </defs>
      <g transform="translate(111.658735 331.155905)scale(0.13 -0.13)">
       <use transform="scale(0.996264)" xlink:href="#CMSY10-0"/>
       <use transform="translate(77.487468 0)scale(0.996264)" xlink:href="#CMR17-55"/>
       <use transform="translate(123.177945 0)scale(0.996264)" xlink:href="#CMMI12-58"/>
       <use transform="translate(150.275122 0)scale(0.996264)" xlink:href="#CMR17-53"/>
      </g>
     </g>
    </g>
    <g id="xtick_3">
     <g id="line2d_7">
      <path clip-path="url(#pefe8be1a68)" d="M 183.677109 318.661876 
L 183.677109 19.285876 
" style="fill:none;stroke:#b0b0b0;stroke-linecap:square;stroke-width:0.5;"/>
     </g>
     <g id="line2d_8">
      <g>
       <use style="stroke:#000000;stroke-width:0.5;" x="183.677109" xlink:href="#m240cb68caa" y="318.661876"/>
      </g>
     </g>
     <g id="line2d_9">
      <g>
       <use style="stroke:#000000;stroke-width:0.5;" x="183.677109" xlink:href="#md3a42705b7" y="19.285876"/>
      </g>
     </g>
     <g id="text_3">
      <!-- $-5.0$ -->
      <g transform="translate(170.538368 331.155905)scale(0.13 -0.13)">
       <use transform="scale(0.996264)" xlink:href="#CMSY10-0"/>
       <use transform="translate(77.487468 0)scale(0.996264)" xlink:href="#CMR17-53"/>
       <use transform="translate(123.177945 0)scale(0.996264)" xlink:href="#CMMI12-58"/>
       <use transform="translate(150.275122 0)scale(0.996264)" xlink:href="#CMR17-48"/>
      </g>
     </g>
    </g>
    <g id="xtick_4">
     <g id="line2d_10">
      <path clip-path="url(#pefe8be1a68)" d="M 242.556742 318.661876 
L 242.556742 19.285876 
" style="fill:none;stroke:#b0b0b0;stroke-linecap:square;stroke-width:0.5;"/>
     </g>
     <g id="line2d_11">
      <g>
       <use style="stroke:#000000;stroke-width:0.5;" x="242.556742" xlink:href="#m240cb68caa" y="318.661876"/>
      </g>
     </g>
     <g id="line2d_12">
      <g>
       <use style="stroke:#000000;stroke-width:0.5;" x="242.556742" xlink:href="#md3a42705b7" y="19.285876"/>
      </g>
     </g>
     <g id="text_4">
      <!-- $-2.5$ -->
      <defs>
       <path d="M 41.703125 15.453125 
L 39.90625 15.453125 
C 38.90625 8.375 38.09375 7.171875 37.703125 6.5625 
C 37.203125 5.765625 30 5.765625 28.59375 5.765625 
L 9.40625 5.765625 
C 13 9.671875 20 16.75 28.5 24.953125 
C 34.59375 30.734375 41.703125 37.53125 41.703125 47.421875 
C 41.703125 59.21875 32.296875 66 21.796875 66 
C 10.796875 66 4.09375 56.3125 4.09375 47.34375 
C 4.09375 43.4375 7 42.9375 8.203125 42.9375 
C 9.203125 42.9375 12.203125 43.546875 12.203125 47.03125 
C 12.203125 50.109375 9.59375 51 8.203125 51 
C 7.59375 51 7 50.90625 6.59375 50.703125 
C 8.5 59.21875 14.296875 63.40625 20.40625 63.40625 
C 29.09375 63.40625 34.796875 56.515625 34.796875 47.421875 
C 34.796875 38.734375 29.703125 31.25 24 24.75 
L 4.09375 2.28125 
L 4.09375 0 
L 39.296875 0 
z
" id="CMR17-50"/>
      </defs>
      <g transform="translate(229.418001 331.155905)scale(0.13 -0.13)">
       <use transform="scale(0.996264)" xlink:href="#CMSY10-0"/>
       <use transform="translate(77.487468 0)scale(0.996264)" xlink:href="#CMR17-50"/>
       <use transform="translate(123.177945 0)scale(0.996264)" xlink:href="#CMMI12-58"/>
       <use transform="translate(150.275122 0)scale(0.996264)" xlink:href="#CMR17-53"/>
      </g>
     </g>
    </g>
    <g id="xtick_5">
     <g id="line2d_13">
      <path clip-path="url(#pefe8be1a68)" d="M 301.436375 318.661876 
L 301.436375 19.285876 
" style="fill:none;stroke:#b0b0b0;stroke-linecap:square;stroke-width:0.5;"/>
     </g>
     <g id="line2d_14">
      <g>
       <use style="stroke:#000000;stroke-width:0.5;" x="301.436375" xlink:href="#m240cb68caa" y="318.661876"/>
      </g>
     </g>
     <g id="line2d_15">
      <g>
       <use style="stroke:#000000;stroke-width:0.5;" x="301.436375" xlink:href="#md3a42705b7" y="19.285876"/>
      </g>
     </g>
     <g id="text_5">
      <!-- $0.0$ -->
      <g transform="translate(293.334319 331.155905)scale(0.13 -0.13)">
       <use transform="scale(0.996264)" xlink:href="#CMR17-48"/>
       <use transform="translate(45.690477 0)scale(0.996264)" xlink:href="#CMMI12-58"/>
       <use transform="translate(72.787654 0)scale(0.996264)" xlink:href="#CMR17-48"/>
      </g>
     </g>
    </g>
    <g id="xtick_6">
     <g id="line2d_16">
      <path clip-path="url(#pefe8be1a68)" d="M 360.316008 318.661876 
L 360.316008 19.285876 
" style="fill:none;stroke:#b0b0b0;stroke-linecap:square;stroke-width:0.5;"/>
     </g>
     <g id="line2d_17">
      <g>
       <use style="stroke:#000000;stroke-width:0.5;" x="360.316008" xlink:href="#m240cb68caa" y="318.661876"/>
      </g>
     </g>
     <g id="line2d_18">
      <g>
       <use style="stroke:#000000;stroke-width:0.5;" x="360.316008" xlink:href="#md3a42705b7" y="19.285876"/>
      </g>
     </g>
     <g id="text_6">
      <!-- $2.5$ -->
      <g transform="translate(352.213952 331.155905)scale(0.13 -0.13)">
       <use transform="scale(0.996264)" xlink:href="#CMR17-50"/>
       <use transform="translate(45.690477 0)scale(0.996264)" xlink:href="#CMMI12-58"/>
       <use transform="translate(72.787654 0)scale(0.996264)" xlink:href="#CMR17-53"/>
      </g>
     </g>
    </g>
    <g id="xtick_7">
     <g id="line2d_19">
      <path clip-path="url(#pefe8be1a68)" d="M 419.195641 318.661876 
L 419.195641 19.285876 
" style="fill:none;stroke:#b0b0b0;stroke-linecap:square;stroke-width:0.5;"/>
     </g>
     <g id="line2d_20">
      <g>
       <use style="stroke:#000000;stroke-width:0.5;" x="419.195641" xlink:href="#m240cb68caa" y="318.661876"/>
      </g>
     </g>
     <g id="line2d_21">
      <g>
       <use style="stroke:#000000;stroke-width:0.5;" x="419.195641" xlink:href="#md3a42705b7" y="19.285876"/>
      </g>
     </g>
     <g id="text_7">
      <!-- $5.0$ -->
      <g transform="translate(411.093585 331.155905)scale(0.13 -0.13)">
       <use transform="scale(0.996264)" xlink:href="#CMR17-53"/>
       <use transform="translate(45.690477 0)scale(0.996264)" xlink:href="#CMMI12-58"/>
       <use transform="translate(72.787654 0)scale(0.996264)" xlink:href="#CMR17-48"/>
      </g>
     </g>
    </g>
    <g id="xtick_8">
     <g id="line2d_22">
      <path clip-path="url(#pefe8be1a68)" d="M 478.075274 318.661876 
L 478.075274 19.285876 
" style="fill:none;stroke:#b0b0b0;stroke-linecap:square;stroke-width:0.5;"/>
     </g>
     <g id="line2d_23">
      <g>
       <use style="stroke:#000000;stroke-width:0.5;" x="478.075274" xlink:href="#m240cb68caa" y="318.661876"/>
      </g>
     </g>
     <g id="line2d_24">
      <g>
       <use style="stroke:#000000;stroke-width:0.5;" x="478.075274" xlink:href="#md3a42705b7" y="19.285876"/>
      </g>
     </g>
     <g id="text_8">
      <!-- $7.5$ -->
      <g transform="translate(469.973218 331.155905)scale(0.13 -0.13)">
       <use transform="scale(0.996264)" xlink:href="#CMR17-55"/>
       <use transform="translate(45.690477 0)scale(0.996264)" xlink:href="#CMMI12-58"/>
       <use transform="translate(72.787654 0)scale(0.996264)" xlink:href="#CMR17-53"/>
      </g>
     </g>
    </g>
    <g id="xtick_9">
     <g id="line2d_25">
      <defs>
       <path d="M 0 0 
L 0 -1.5 
" id="m607e373f71" style="stroke:#000000;stroke-width:0.5;"/>
      </defs>
      <g>
       <use style="stroke:#000000;stroke-width:0.5;" x="80.637752" xlink:href="#m607e373f71" y="318.661876"/>
      </g>
     </g>
     <g id="line2d_26">
      <defs>
       <path d="M 0 0 
L 0 1.5 
" id="ma3e67d44d8" style="stroke:#000000;stroke-width:0.5;"/>
      </defs>
      <g>
       <use style="stroke:#000000;stroke-width:0.5;" x="80.637752" xlink:href="#ma3e67d44d8" y="19.285876"/>
      </g>
     </g>
    </g>
    <g id="xtick_10">
     <g id="line2d_27">
      <g>
       <use style="stroke:#000000;stroke-width:0.5;" x="95.35766" xlink:href="#m607e373f71" y="318.661876"/>
      </g>
     </g>
     <g id="line2d_28">
      <g>
       <use style="stroke:#000000;stroke-width:0.5;" x="95.35766" xlink:href="#ma3e67d44d8" y="19.285876"/>
      </g>
     </g>
    </g>
    <g id="xtick_11">
     <g id="line2d_29">
      <g>
       <use style="stroke:#000000;stroke-width:0.5;" x="110.077568" xlink:href="#m607e373f71" y="318.661876"/>
      </g>
     </g>
     <g id="line2d_30">
      <g>
       <use style="stroke:#000000;stroke-width:0.5;" x="110.077568" xlink:href="#ma3e67d44d8" y="19.285876"/>
      </g>
     </g>
    </g>
    <g id="xtick_12">
     <g id="line2d_31">
      <g>
       <use style="stroke:#000000;stroke-width:0.5;" x="139.517385" xlink:href="#m607e373f71" y="318.661876"/>
      </g>
     </g>
     <g id="line2d_32">
      <g>
       <use style="stroke:#000000;stroke-width:0.5;" x="139.517385" xlink:href="#ma3e67d44d8" y="19.285876"/>
      </g>
     </g>
    </g>
    <g id="xtick_13">
     <g id="line2d_33">
      <g>
       <use style="stroke:#000000;stroke-width:0.5;" x="154.237293" xlink:href="#m607e373f71" y="318.661876"/>
      </g>
     </g>
     <g id="line2d_34">
      <g>
       <use style="stroke:#000000;stroke-width:0.5;" x="154.237293" xlink:href="#ma3e67d44d8" y="19.285876"/>
      </g>
     </g>
    </g>
    <g id="xtick_14">
     <g id="line2d_35">
      <g>
       <use style="stroke:#000000;stroke-width:0.5;" x="168.957201" xlink:href="#m607e373f71" y="318.661876"/>
      </g>
     </g>
     <g id="line2d_36">
      <g>
       <use style="stroke:#000000;stroke-width:0.5;" x="168.957201" xlink:href="#ma3e67d44d8" y="19.285876"/>
      </g>
     </g>
    </g>
    <g id="xtick_15">
     <g id="line2d_37">
      <g>
       <use style="stroke:#000000;stroke-width:0.5;" x="198.397017" xlink:href="#m607e373f71" y="318.661876"/>
      </g>
     </g>
     <g id="line2d_38">
      <g>
       <use style="stroke:#000000;stroke-width:0.5;" x="198.397017" xlink:href="#ma3e67d44d8" y="19.285876"/>
      </g>
     </g>
    </g>
    <g id="xtick_16">
     <g id="line2d_39">
      <g>
       <use style="stroke:#000000;stroke-width:0.5;" x="213.116926" xlink:href="#m607e373f71" y="318.661876"/>
      </g>
     </g>
     <g id="line2d_40">
      <g>
       <use style="stroke:#000000;stroke-width:0.5;" x="213.116926" xlink:href="#ma3e67d44d8" y="19.285876"/>
      </g>
     </g>
    </g>
    <g id="xtick_17">
     <g id="line2d_41">
      <g>
       <use style="stroke:#000000;stroke-width:0.5;" x="227.836834" xlink:href="#m607e373f71" y="318.661876"/>
      </g>
     </g>
     <g id="line2d_42">
      <g>
       <use style="stroke:#000000;stroke-width:0.5;" x="227.836834" xlink:href="#ma3e67d44d8" y="19.285876"/>
      </g>
     </g>
    </g>
    <g id="xtick_18">
     <g id="line2d_43">
      <g>
       <use style="stroke:#000000;stroke-width:0.5;" x="257.27665" xlink:href="#m607e373f71" y="318.661876"/>
      </g>
     </g>
     <g id="line2d_44">
      <g>
       <use style="stroke:#000000;stroke-width:0.5;" x="257.27665" xlink:href="#ma3e67d44d8" y="19.285876"/>
      </g>
     </g>
    </g>
    <g id="xtick_19">
     <g id="line2d_45">
      <g>
       <use style="stroke:#000000;stroke-width:0.5;" x="271.996559" xlink:href="#m607e373f71" y="318.661876"/>
      </g>
     </g>
     <g id="line2d_46">
      <g>
       <use style="stroke:#000000;stroke-width:0.5;" x="271.996559" xlink:href="#ma3e67d44d8" y="19.285876"/>
      </g>
     </g>
    </g>
    <g id="xtick_20">
     <g id="line2d_47">
      <g>
       <use style="stroke:#000000;stroke-width:0.5;" x="286.716467" xlink:href="#m607e373f71" y="318.661876"/>
      </g>
     </g>
     <g id="line2d_48">
      <g>
       <use style="stroke:#000000;stroke-width:0.5;" x="286.716467" xlink:href="#ma3e67d44d8" y="19.285876"/>
      </g>
     </g>
    </g>
    <g id="xtick_21">
     <g id="line2d_49">
      <g>
       <use style="stroke:#000000;stroke-width:0.5;" x="316.156283" xlink:href="#m607e373f71" y="318.661876"/>
      </g>
     </g>
     <g id="line2d_50">
      <g>
       <use style="stroke:#000000;stroke-width:0.5;" x="316.156283" xlink:href="#ma3e67d44d8" y="19.285876"/>
      </g>
     </g>
    </g>
    <g id="xtick_22">
     <g id="line2d_51">
      <g>
       <use style="stroke:#000000;stroke-width:0.5;" x="330.876192" xlink:href="#m607e373f71" y="318.661876"/>
      </g>
     </g>
     <g id="line2d_52">
      <g>
       <use style="stroke:#000000;stroke-width:0.5;" x="330.876192" xlink:href="#ma3e67d44d8" y="19.285876"/>
      </g>
     </g>
    </g>
    <g id="xtick_23">
     <g id="line2d_53">
      <g>
       <use style="stroke:#000000;stroke-width:0.5;" x="345.5961" xlink:href="#m607e373f71" y="318.661876"/>
      </g>
     </g>
     <g id="line2d_54">
      <g>
       <use style="stroke:#000000;stroke-width:0.5;" x="345.5961" xlink:href="#ma3e67d44d8" y="19.285876"/>
      </g>
     </g>
    </g>
    <g id="xtick_24">
     <g id="line2d_55">
      <g>
       <use style="stroke:#000000;stroke-width:0.5;" x="375.035916" xlink:href="#m607e373f71" y="318.661876"/>
      </g>
     </g>
     <g id="line2d_56">
      <g>
       <use style="stroke:#000000;stroke-width:0.5;" x="375.035916" xlink:href="#ma3e67d44d8" y="19.285876"/>
      </g>
     </g>
    </g>
    <g id="xtick_25">
     <g id="line2d_57">
      <g>
       <use style="stroke:#000000;stroke-width:0.5;" x="389.755824" xlink:href="#m607e373f71" y="318.661876"/>
      </g>
     </g>
     <g id="line2d_58">
      <g>
       <use style="stroke:#000000;stroke-width:0.5;" x="389.755824" xlink:href="#ma3e67d44d8" y="19.285876"/>
      </g>
     </g>
    </g>
    <g id="xtick_26">
     <g id="line2d_59">
      <g>
       <use style="stroke:#000000;stroke-width:0.5;" x="404.475733" xlink:href="#m607e373f71" y="318.661876"/>
      </g>
     </g>
     <g id="line2d_60">
      <g>
       <use style="stroke:#000000;stroke-width:0.5;" x="404.475733" xlink:href="#ma3e67d44d8" y="19.285876"/>
      </g>
     </g>
    </g>
    <g id="xtick_27">
     <g id="line2d_61">
      <g>
       <use style="stroke:#000000;stroke-width:0.5;" x="433.915549" xlink:href="#m607e373f71" y="318.661876"/>
      </g>
     </g>
     <g id="line2d_62">
      <g>
       <use style="stroke:#000000;stroke-width:0.5;" x="433.915549" xlink:href="#ma3e67d44d8" y="19.285876"/>
      </g>
     </g>
    </g>
    <g id="xtick_28">
     <g id="line2d_63">
      <g>
       <use style="stroke:#000000;stroke-width:0.5;" x="448.635457" xlink:href="#m607e373f71" y="318.661876"/>
      </g>
     </g>
     <g id="line2d_64">
      <g>
       <use style="stroke:#000000;stroke-width:0.5;" x="448.635457" xlink:href="#ma3e67d44d8" y="19.285876"/>
      </g>
     </g>
    </g>
    <g id="xtick_29">
     <g id="line2d_65">
      <g>
       <use style="stroke:#000000;stroke-width:0.5;" x="463.355366" xlink:href="#m607e373f71" y="318.661876"/>
      </g>
     </g>
     <g id="line2d_66">
      <g>
       <use style="stroke:#000000;stroke-width:0.5;" x="463.355366" xlink:href="#ma3e67d44d8" y="19.285876"/>
      </g>
     </g>
    </g>
    <g id="xtick_30">
     <g id="line2d_67">
      <g>
       <use style="stroke:#000000;stroke-width:0.5;" x="492.795182" xlink:href="#m607e373f71" y="318.661876"/>
      </g>
     </g>
     <g id="line2d_68">
      <g>
       <use style="stroke:#000000;stroke-width:0.5;" x="492.795182" xlink:href="#ma3e67d44d8" y="19.285876"/>
      </g>
     </g>
    </g>
    <g id="xtick_31">
     <g id="line2d_69">
      <g>
       <use style="stroke:#000000;stroke-width:0.5;" x="507.51509" xlink:href="#m607e373f71" y="318.661876"/>
      </g>
     </g>
     <g id="line2d_70">
      <g>
       <use style="stroke:#000000;stroke-width:0.5;" x="507.51509" xlink:href="#ma3e67d44d8" y="19.285876"/>
      </g>
     </g>
    </g>
    <g id="text_9">
     <!-- $x$ -->
     <defs>
      <path d="M 47.40625 40.71875 
C 44.203125 40.109375 43 37.71875 43 35.828125 
C 43 33.421875 44.90625 32.625 46.296875 32.625 
C 49.296875 32.625 51.40625 35.21875 51.40625 37.921875 
C 51.40625 42.109375 46.59375 44 42.40625 44 
C 36.296875 44 32.90625 38.015625 32 36.125 
C 29.703125 44 23.5 44 21.703125 44 
C 11.5 44 6.09375 30.9375 6.09375 28.734375 
C 6.09375 28.34375 6.5 27.84375 7.203125 27.84375 
C 8 27.84375 8.203125 28.4375 8.40625 28.84375 
C 11.796875 39.921875 18.5 42.015625 21.40625 42.015625 
C 25.90625 42.015625 26.796875 37.8125 26.796875 35.421875 
C 26.796875 33.234375 26.203125 30.9375 25 26.140625 
L 21.59375 12.46875 
C 20.09375 6.484375 17.203125 1 11.90625 1 
C 11.40625 1 8.90625 1 6.796875 2.296875 
C 10.40625 3 11.203125 5.984375 11.203125 7.1875 
C 11.203125 9.1875 9.703125 10.375 7.796875 10.375 
C 5.40625 10.375 2.796875 8.28125 2.796875 5.09375 
C 2.796875 0.890625 7.5 -1 11.796875 -1 
C 16.59375 -1 20 2.796875 22.09375 6.890625 
C 23.703125 1 28.703125 -1 32.40625 -1 
C 42.59375 -1 48 12.078125 48 14.265625 
C 48 14.765625 47.59375 15.171875 47 15.171875 
C 46.09375 15.171875 46 14.671875 45.703125 13.875 
C 43 5.09375 37.203125 1 32.703125 1 
C 29.203125 1 27.296875 3.59375 27.296875 7.6875 
C 27.296875 9.875 27.703125 11.46875 29.296875 18.0625 
L 32.796875 31.625 
C 34.296875 37.625 37.703125 42.015625 42.296875 42.015625 
C 42.5 42.015625 45.296875 42.015625 47.40625 40.71875 
z
" id="CMMI12-120"/>
     </defs>
     <g transform="translate(279.056443 346.668245)scale(0.13 -0.13)">
      <use transform="scale(0.996264)" xlink:href="#CMMI12-120"/>
     </g>
    </g>
   </g>
   <g id="matplotlib.axis_2">
    <g id="ytick_1">
     <g id="line2d_71">
      <path clip-path="url(#pefe8be1a68)" d="M 56.669653 305.079655 
L 508.649653 305.079655 
" style="fill:none;stroke:#b0b0b0;stroke-linecap:square;stroke-width:0.5;"/>
     </g>
     <g id="line2d_72">
      <defs>
       <path d="M 0 0 
L 3 0 
" id="mcf646ccfb8" style="stroke:#000000;stroke-width:0.5;"/>
      </defs>
      <g>
       <use style="stroke:#000000;stroke-width:0.5;" x="56.669653" xlink:href="#mcf646ccfb8" y="305.079655"/>
      </g>
     </g>
     <g id="line2d_73">
      <defs>
       <path d="M 0 0 
L -3 0 
" id="m2c268e386f" style="stroke:#000000;stroke-width:0.5;"/>
      </defs>
      <g>
       <use style="stroke:#000000;stroke-width:0.5;" x="508.649653" xlink:href="#m2c268e386f" y="305.079655"/>
      </g>
     </g>
     <g id="text_10">
      <!-- $-1.00$ -->
      <g transform="translate(20.551432 309.576669)scale(0.13 -0.13)">
       <use transform="scale(0.996264)" xlink:href="#CMSY10-0"/>
       <use transform="translate(77.487468 0)scale(0.996264)" xlink:href="#CMR17-49"/>
       <use transform="translate(123.177945 0)scale(0.996264)" xlink:href="#CMMI12-58"/>
       <use transform="translate(150.275122 0)scale(0.996264)" xlink:href="#CMR17-48"/>
       <use transform="translate(195.965599 0)scale(0.996264)" xlink:href="#CMR17-48"/>
      </g>
     </g>
    </g>
    <g id="ytick_2">
     <g id="line2d_74">
      <path clip-path="url(#pefe8be1a68)" d="M 56.669653 271.056224 
L 508.649653 271.056224 
" style="fill:none;stroke:#b0b0b0;stroke-linecap:square;stroke-width:0.5;"/>
     </g>
     <g id="line2d_75">
      <g>
       <use style="stroke:#000000;stroke-width:0.5;" x="56.669653" xlink:href="#mcf646ccfb8" y="271.056224"/>
      </g>
     </g>
     <g id="line2d_76">
      <g>
       <use style="stroke:#000000;stroke-width:0.5;" x="508.649653" xlink:href="#m2c268e386f" y="271.056224"/>
      </g>
     </g>
     <g id="text_11">
      <!-- $-0.75$ -->
      <g transform="translate(20.551432 275.553238)scale(0.13 -0.13)">
       <use transform="scale(0.996264)" xlink:href="#CMSY10-0"/>
       <use transform="translate(77.487468 0)scale(0.996264)" xlink:href="#CMR17-48"/>
       <use transform="translate(123.177945 0)scale(0.996264)" xlink:href="#CMMI12-58"/>
       <use transform="translate(150.275122 0)scale(0.996264)" xlink:href="#CMR17-55"/>
       <use transform="translate(195.965599 0)scale(0.996264)" xlink:href="#CMR17-53"/>
      </g>
     </g>
    </g>
    <g id="ytick_3">
     <g id="line2d_77">
      <path clip-path="url(#pefe8be1a68)" d="M 56.669653 237.032793 
L 508.649653 237.032793 
" style="fill:none;stroke:#b0b0b0;stroke-linecap:square;stroke-width:0.5;"/>
     </g>
     <g id="line2d_78">
      <g>
       <use style="stroke:#000000;stroke-width:0.5;" x="56.669653" xlink:href="#mcf646ccfb8" y="237.032793"/>
      </g>
     </g>
     <g id="line2d_79">
      <g>
       <use style="stroke:#000000;stroke-width:0.5;" x="508.649653" xlink:href="#m2c268e386f" y="237.032793"/>
      </g>
     </g>
     <g id="text_12">
      <!-- $-0.50$ -->
      <g transform="translate(20.551432 241.529807)scale(0.13 -0.13)">
       <use transform="scale(0.996264)" xlink:href="#CMSY10-0"/>
       <use transform="translate(77.487468 0)scale(0.996264)" xlink:href="#CMR17-48"/>
       <use transform="translate(123.177945 0)scale(0.996264)" xlink:href="#CMMI12-58"/>
       <use transform="translate(150.275122 0)scale(0.996264)" xlink:href="#CMR17-53"/>
       <use transform="translate(195.965599 0)scale(0.996264)" xlink:href="#CMR17-48"/>
      </g>
     </g>
    </g>
    <g id="ytick_4">
     <g id="line2d_80">
      <path clip-path="url(#pefe8be1a68)" d="M 56.669653 203.009361 
L 508.649653 203.009361 
" style="fill:none;stroke:#b0b0b0;stroke-linecap:square;stroke-width:0.5;"/>
     </g>
     <g id="line2d_81">
      <g>
       <use style="stroke:#000000;stroke-width:0.5;" x="56.669653" xlink:href="#mcf646ccfb8" y="203.009361"/>
      </g>
     </g>
     <g id="line2d_82">
      <g>
       <use style="stroke:#000000;stroke-width:0.5;" x="508.649653" xlink:href="#m2c268e386f" y="203.009361"/>
      </g>
     </g>
     <g id="text_13">
      <!-- $-0.25$ -->
      <g transform="translate(20.551432 207.506375)scale(0.13 -0.13)">
       <use transform="scale(0.996264)" xlink:href="#CMSY10-0"/>
       <use transform="translate(77.487468 0)scale(0.996264)" xlink:href="#CMR17-48"/>
       <use transform="translate(123.177945 0)scale(0.996264)" xlink:href="#CMMI12-58"/>
       <use transform="translate(150.275122 0)scale(0.996264)" xlink:href="#CMR17-50"/>
       <use transform="translate(195.965599 0)scale(0.996264)" xlink:href="#CMR17-53"/>
      </g>
     </g>
    </g>
    <g id="ytick_5">
     <g id="line2d_83">
      <path clip-path="url(#pefe8be1a68)" d="M 56.669653 168.98593 
L 508.649653 168.98593 
" style="fill:none;stroke:#b0b0b0;stroke-linecap:square;stroke-width:0.5;"/>
     </g>
     <g id="line2d_84">
      <g>
       <use style="stroke:#000000;stroke-width:0.5;" x="56.669653" xlink:href="#mcf646ccfb8" y="168.98593"/>
      </g>
     </g>
     <g id="line2d_85">
      <g>
       <use style="stroke:#000000;stroke-width:0.5;" x="508.649653" xlink:href="#m2c268e386f" y="168.98593"/>
      </g>
     </g>
     <g id="text_14">
      <!-- $0.00$ -->
      <g transform="translate(30.624802 173.482944)scale(0.13 -0.13)">
       <use transform="scale(0.996264)" xlink:href="#CMR17-48"/>
       <use transform="translate(45.690477 0)scale(0.996264)" xlink:href="#CMMI12-58"/>
       <use transform="translate(72.787654 0)scale(0.996264)" xlink:href="#CMR17-48"/>
       <use transform="translate(118.478131 0)scale(0.996264)" xlink:href="#CMR17-48"/>
      </g>
     </g>
    </g>
    <g id="ytick_6">
     <g id="line2d_86">
      <path clip-path="url(#pefe8be1a68)" d="M 56.669653 134.962498 
L 508.649653 134.962498 
" style="fill:none;stroke:#b0b0b0;stroke-linecap:square;stroke-width:0.5;"/>
     </g>
     <g id="line2d_87">
      <g>
       <use style="stroke:#000000;stroke-width:0.5;" x="56.669653" xlink:href="#mcf646ccfb8" y="134.962498"/>
      </g>
     </g>
     <g id="line2d_88">
      <g>
       <use style="stroke:#000000;stroke-width:0.5;" x="508.649653" xlink:href="#m2c268e386f" y="134.962498"/>
      </g>
     </g>
     <g id="text_15">
      <!-- $0.25$ -->
      <g transform="translate(30.624802 139.459512)scale(0.13 -0.13)">
       <use transform="scale(0.996264)" xlink:href="#CMR17-48"/>
       <use transform="translate(45.690477 0)scale(0.996264)" xlink:href="#CMMI12-58"/>
       <use transform="translate(72.787654 0)scale(0.996264)" xlink:href="#CMR17-50"/>
       <use transform="translate(118.478131 0)scale(0.996264)" xlink:href="#CMR17-53"/>
      </g>
     </g>
    </g>
    <g id="ytick_7">
     <g id="line2d_89">
      <path clip-path="url(#pefe8be1a68)" d="M 56.669653 100.939067 
L 508.649653 100.939067 
" style="fill:none;stroke:#b0b0b0;stroke-linecap:square;stroke-width:0.5;"/>
     </g>
     <g id="line2d_90">
      <g>
       <use style="stroke:#000000;stroke-width:0.5;" x="56.669653" xlink:href="#mcf646ccfb8" y="100.939067"/>
      </g>
     </g>
     <g id="line2d_91">
      <g>
       <use style="stroke:#000000;stroke-width:0.5;" x="508.649653" xlink:href="#m2c268e386f" y="100.939067"/>
      </g>
     </g>
     <g id="text_16">
      <!-- $0.50$ -->
      <g transform="translate(30.624802 105.436081)scale(0.13 -0.13)">
       <use transform="scale(0.996264)" xlink:href="#CMR17-48"/>
       <use transform="translate(45.690477 0)scale(0.996264)" xlink:href="#CMMI12-58"/>
       <use transform="translate(72.787654 0)scale(0.996264)" xlink:href="#CMR17-53"/>
       <use transform="translate(118.478131 0)scale(0.996264)" xlink:href="#CMR17-48"/>
      </g>
     </g>
    </g>
    <g id="ytick_8">
     <g id="line2d_92">
      <path clip-path="url(#pefe8be1a68)" d="M 56.669653 66.915636 
L 508.649653 66.915636 
" style="fill:none;stroke:#b0b0b0;stroke-linecap:square;stroke-width:0.5;"/>
     </g>
     <g id="line2d_93">
      <g>
       <use style="stroke:#000000;stroke-width:0.5;" x="56.669653" xlink:href="#mcf646ccfb8" y="66.915636"/>
      </g>
     </g>
     <g id="line2d_94">
      <g>
       <use style="stroke:#000000;stroke-width:0.5;" x="508.649653" xlink:href="#m2c268e386f" y="66.915636"/>
      </g>
     </g>
     <g id="text_17">
      <!-- $0.75$ -->
      <g transform="translate(30.624802 71.41265)scale(0.13 -0.13)">
       <use transform="scale(0.996264)" xlink:href="#CMR17-48"/>
       <use transform="translate(45.690477 0)scale(0.996264)" xlink:href="#CMMI12-58"/>
       <use transform="translate(72.787654 0)scale(0.996264)" xlink:href="#CMR17-55"/>
       <use transform="translate(118.478131 0)scale(0.996264)" xlink:href="#CMR17-53"/>
      </g>
     </g>
    </g>
    <g id="ytick_9">
     <g id="line2d_95">
      <path clip-path="url(#pefe8be1a68)" d="M 56.669653 32.892204 
L 508.649653 32.892204 
" style="fill:none;stroke:#b0b0b0;stroke-linecap:square;stroke-width:0.5;"/>
     </g>
     <g id="line2d_96">
      <g>
       <use style="stroke:#000000;stroke-width:0.5;" x="56.669653" xlink:href="#mcf646ccfb8" y="32.892204"/>
      </g>
     </g>
     <g id="line2d_97">
      <g>
       <use style="stroke:#000000;stroke-width:0.5;" x="508.649653" xlink:href="#m2c268e386f" y="32.892204"/>
      </g>
     </g>
     <g id="text_18">
      <!-- $1.00$ -->
      <g transform="translate(30.624802 37.389218)scale(0.13 -0.13)">
       <use transform="scale(0.996264)" xlink:href="#CMR17-49"/>
       <use transform="translate(45.690477 0)scale(0.996264)" xlink:href="#CMMI12-58"/>
       <use transform="translate(72.787654 0)scale(0.996264)" xlink:href="#CMR17-48"/>
       <use transform="translate(118.478131 0)scale(0.996264)" xlink:href="#CMR17-48"/>
      </g>
     </g>
    </g>
    <g id="ytick_10">
     <g id="line2d_98">
      <defs>
       <path d="M 0 0 
L 1.5 0 
" id="m33c02b6702" style="stroke:#000000;stroke-width:0.5;"/>
      </defs>
      <g>
       <use style="stroke:#000000;stroke-width:0.5;" x="56.669653" xlink:href="#m33c02b6702" y="313.585513"/>
      </g>
     </g>
     <g id="line2d_99">
      <defs>
       <path d="M 0 0 
L -1.5 0 
" id="ma9891ea49a" style="stroke:#000000;stroke-width:0.5;"/>
      </defs>
      <g>
       <use style="stroke:#000000;stroke-width:0.5;" x="508.649653" xlink:href="#ma9891ea49a" y="313.585513"/>
      </g>
     </g>
    </g>
    <g id="ytick_11">
     <g id="line2d_100">
      <g>
       <use style="stroke:#000000;stroke-width:0.5;" x="56.669653" xlink:href="#m33c02b6702" y="296.573798"/>
      </g>
     </g>
     <g id="line2d_101">
      <g>
       <use style="stroke:#000000;stroke-width:0.5;" x="508.649653" xlink:href="#ma9891ea49a" y="296.573798"/>
      </g>
     </g>
    </g>
    <g id="ytick_12">
     <g id="line2d_102">
      <g>
       <use style="stroke:#000000;stroke-width:0.5;" x="56.669653" xlink:href="#m33c02b6702" y="288.06794"/>
      </g>
     </g>
     <g id="line2d_103">
      <g>
       <use style="stroke:#000000;stroke-width:0.5;" x="508.649653" xlink:href="#ma9891ea49a" y="288.06794"/>
      </g>
     </g>
    </g>
    <g id="ytick_13">
     <g id="line2d_104">
      <g>
       <use style="stroke:#000000;stroke-width:0.5;" x="56.669653" xlink:href="#m33c02b6702" y="279.562082"/>
      </g>
     </g>
     <g id="line2d_105">
      <g>
       <use style="stroke:#000000;stroke-width:0.5;" x="508.649653" xlink:href="#ma9891ea49a" y="279.562082"/>
      </g>
     </g>
    </g>
    <g id="ytick_14">
     <g id="line2d_106">
      <g>
       <use style="stroke:#000000;stroke-width:0.5;" x="56.669653" xlink:href="#m33c02b6702" y="262.550366"/>
      </g>
     </g>
     <g id="line2d_107">
      <g>
       <use style="stroke:#000000;stroke-width:0.5;" x="508.649653" xlink:href="#ma9891ea49a" y="262.550366"/>
      </g>
     </g>
    </g>
    <g id="ytick_15">
     <g id="line2d_108">
      <g>
       <use style="stroke:#000000;stroke-width:0.5;" x="56.669653" xlink:href="#m33c02b6702" y="254.044508"/>
      </g>
     </g>
     <g id="line2d_109">
      <g>
       <use style="stroke:#000000;stroke-width:0.5;" x="508.649653" xlink:href="#ma9891ea49a" y="254.044508"/>
      </g>
     </g>
    </g>
    <g id="ytick_16">
     <g id="line2d_110">
      <g>
       <use style="stroke:#000000;stroke-width:0.5;" x="56.669653" xlink:href="#m33c02b6702" y="245.53865"/>
      </g>
     </g>
     <g id="line2d_111">
      <g>
       <use style="stroke:#000000;stroke-width:0.5;" x="508.649653" xlink:href="#ma9891ea49a" y="245.53865"/>
      </g>
     </g>
    </g>
    <g id="ytick_17">
     <g id="line2d_112">
      <g>
       <use style="stroke:#000000;stroke-width:0.5;" x="56.669653" xlink:href="#m33c02b6702" y="228.526935"/>
      </g>
     </g>
     <g id="line2d_113">
      <g>
       <use style="stroke:#000000;stroke-width:0.5;" x="508.649653" xlink:href="#ma9891ea49a" y="228.526935"/>
      </g>
     </g>
    </g>
    <g id="ytick_18">
     <g id="line2d_114">
      <g>
       <use style="stroke:#000000;stroke-width:0.5;" x="56.669653" xlink:href="#m33c02b6702" y="220.021077"/>
      </g>
     </g>
     <g id="line2d_115">
      <g>
       <use style="stroke:#000000;stroke-width:0.5;" x="508.649653" xlink:href="#ma9891ea49a" y="220.021077"/>
      </g>
     </g>
    </g>
    <g id="ytick_19">
     <g id="line2d_116">
      <g>
       <use style="stroke:#000000;stroke-width:0.5;" x="56.669653" xlink:href="#m33c02b6702" y="211.515219"/>
      </g>
     </g>
     <g id="line2d_117">
      <g>
       <use style="stroke:#000000;stroke-width:0.5;" x="508.649653" xlink:href="#ma9891ea49a" y="211.515219"/>
      </g>
     </g>
    </g>
    <g id="ytick_20">
     <g id="line2d_118">
      <g>
       <use style="stroke:#000000;stroke-width:0.5;" x="56.669653" xlink:href="#m33c02b6702" y="194.503503"/>
      </g>
     </g>
     <g id="line2d_119">
      <g>
       <use style="stroke:#000000;stroke-width:0.5;" x="508.649653" xlink:href="#ma9891ea49a" y="194.503503"/>
      </g>
     </g>
    </g>
    <g id="ytick_21">
     <g id="line2d_120">
      <g>
       <use style="stroke:#000000;stroke-width:0.5;" x="56.669653" xlink:href="#m33c02b6702" y="185.997645"/>
      </g>
     </g>
     <g id="line2d_121">
      <g>
       <use style="stroke:#000000;stroke-width:0.5;" x="508.649653" xlink:href="#ma9891ea49a" y="185.997645"/>
      </g>
     </g>
    </g>
    <g id="ytick_22">
     <g id="line2d_122">
      <g>
       <use style="stroke:#000000;stroke-width:0.5;" x="56.669653" xlink:href="#m33c02b6702" y="177.491788"/>
      </g>
     </g>
     <g id="line2d_123">
      <g>
       <use style="stroke:#000000;stroke-width:0.5;" x="508.649653" xlink:href="#ma9891ea49a" y="177.491788"/>
      </g>
     </g>
    </g>
    <g id="ytick_23">
     <g id="line2d_124">
      <g>
       <use style="stroke:#000000;stroke-width:0.5;" x="56.669653" xlink:href="#m33c02b6702" y="160.480072"/>
      </g>
     </g>
     <g id="line2d_125">
      <g>
       <use style="stroke:#000000;stroke-width:0.5;" x="508.649653" xlink:href="#ma9891ea49a" y="160.480072"/>
      </g>
     </g>
    </g>
    <g id="ytick_24">
     <g id="line2d_126">
      <g>
       <use style="stroke:#000000;stroke-width:0.5;" x="56.669653" xlink:href="#m33c02b6702" y="151.974214"/>
      </g>
     </g>
     <g id="line2d_127">
      <g>
       <use style="stroke:#000000;stroke-width:0.5;" x="508.649653" xlink:href="#ma9891ea49a" y="151.974214"/>
      </g>
     </g>
    </g>
    <g id="ytick_25">
     <g id="line2d_128">
      <g>
       <use style="stroke:#000000;stroke-width:0.5;" x="56.669653" xlink:href="#m33c02b6702" y="143.468356"/>
      </g>
     </g>
     <g id="line2d_129">
      <g>
       <use style="stroke:#000000;stroke-width:0.5;" x="508.649653" xlink:href="#ma9891ea49a" y="143.468356"/>
      </g>
     </g>
    </g>
    <g id="ytick_26">
     <g id="line2d_130">
      <g>
       <use style="stroke:#000000;stroke-width:0.5;" x="56.669653" xlink:href="#m33c02b6702" y="126.45664"/>
      </g>
     </g>
     <g id="line2d_131">
      <g>
       <use style="stroke:#000000;stroke-width:0.5;" x="508.649653" xlink:href="#ma9891ea49a" y="126.45664"/>
      </g>
     </g>
    </g>
    <g id="ytick_27">
     <g id="line2d_132">
      <g>
       <use style="stroke:#000000;stroke-width:0.5;" x="56.669653" xlink:href="#m33c02b6702" y="117.950783"/>
      </g>
     </g>
     <g id="line2d_133">
      <g>
       <use style="stroke:#000000;stroke-width:0.5;" x="508.649653" xlink:href="#ma9891ea49a" y="117.950783"/>
      </g>
     </g>
    </g>
    <g id="ytick_28">
     <g id="line2d_134">
      <g>
       <use style="stroke:#000000;stroke-width:0.5;" x="56.669653" xlink:href="#m33c02b6702" y="109.444925"/>
      </g>
     </g>
     <g id="line2d_135">
      <g>
       <use style="stroke:#000000;stroke-width:0.5;" x="508.649653" xlink:href="#ma9891ea49a" y="109.444925"/>
      </g>
     </g>
    </g>
    <g id="ytick_29">
     <g id="line2d_136">
      <g>
       <use style="stroke:#000000;stroke-width:0.5;" x="56.669653" xlink:href="#m33c02b6702" y="92.433209"/>
      </g>
     </g>
     <g id="line2d_137">
      <g>
       <use style="stroke:#000000;stroke-width:0.5;" x="508.649653" xlink:href="#ma9891ea49a" y="92.433209"/>
      </g>
     </g>
    </g>
    <g id="ytick_30">
     <g id="line2d_138">
      <g>
       <use style="stroke:#000000;stroke-width:0.5;" x="56.669653" xlink:href="#m33c02b6702" y="83.927351"/>
      </g>
     </g>
     <g id="line2d_139">
      <g>
       <use style="stroke:#000000;stroke-width:0.5;" x="508.649653" xlink:href="#ma9891ea49a" y="83.927351"/>
      </g>
     </g>
    </g>
    <g id="ytick_31">
     <g id="line2d_140">
      <g>
       <use style="stroke:#000000;stroke-width:0.5;" x="56.669653" xlink:href="#m33c02b6702" y="75.421493"/>
      </g>
     </g>
     <g id="line2d_141">
      <g>
       <use style="stroke:#000000;stroke-width:0.5;" x="508.649653" xlink:href="#ma9891ea49a" y="75.421493"/>
      </g>
     </g>
    </g>
    <g id="ytick_32">
     <g id="line2d_142">
      <g>
       <use style="stroke:#000000;stroke-width:0.5;" x="56.669653" xlink:href="#m33c02b6702" y="58.409778"/>
      </g>
     </g>
     <g id="line2d_143">
      <g>
       <use style="stroke:#000000;stroke-width:0.5;" x="508.649653" xlink:href="#ma9891ea49a" y="58.409778"/>
      </g>
     </g>
    </g>
    <g id="ytick_33">
     <g id="line2d_144">
      <g>
       <use style="stroke:#000000;stroke-width:0.5;" x="56.669653" xlink:href="#m33c02b6702" y="49.90392"/>
      </g>
     </g>
     <g id="line2d_145">
      <g>
       <use style="stroke:#000000;stroke-width:0.5;" x="508.649653" xlink:href="#ma9891ea49a" y="49.90392"/>
      </g>
     </g>
    </g>
    <g id="ytick_34">
     <g id="line2d_146">
      <g>
       <use style="stroke:#000000;stroke-width:0.5;" x="56.669653" xlink:href="#m33c02b6702" y="41.398062"/>
      </g>
     </g>
     <g id="line2d_147">
      <g>
       <use style="stroke:#000000;stroke-width:0.5;" x="508.649653" xlink:href="#ma9891ea49a" y="41.398062"/>
      </g>
     </g>
    </g>
    <g id="ytick_35">
     <g id="line2d_148">
      <g>
       <use style="stroke:#000000;stroke-width:0.5;" x="56.669653" xlink:href="#m33c02b6702" y="24.386346"/>
      </g>
     </g>
     <g id="line2d_149">
      <g>
       <use style="stroke:#000000;stroke-width:0.5;" x="508.649653" xlink:href="#ma9891ea49a" y="24.386346"/>
      </g>
     </g>
    </g>
    <g id="text_19">
     <!-- $y = sinus(x)$ -->
     <defs>
      <path d="M 26.296875 -10.9375 
C 23.59375 -14.671875 19.703125 -18 14.796875 -18 
C 13.59375 -18 8.796875 -18 7.296875 -13.890625 
C 7.59375 -13.984375 8.09375 -13.984375 8.296875 -13.984375 
C 11.296875 -13.984375 13.296875 -11.390625 13.296875 -9.09375 
C 13.296875 -6.796875 11.40625 -6 9.90625 -6 
C 8.296875 -6 4.796875 -7.15625 4.796875 -11.859375 
C 4.796875 -16.734375 9.09375 -20.09375 14.796875 -20.09375 
C 24.796875 -20.09375 34.90625 -10.9375 37.703125 0.09375 
L 47.5 38.828125 
C 47.59375 39.328125 47.796875 39.9375 47.796875 40.53125 
C 47.796875 42.015625 46.59375 43.015625 45.09375 43.015625 
C 44.203125 43.015625 42.09375 42.609375 41.296875 39.609375 
L 33.90625 10.28125 
C 33.40625 8.484375 33.40625 8.28125 32.59375 7.1875 
C 30.59375 4.390625 27.296875 1 22.5 1 
C 16.90625 1 16.40625 6.484375 16.40625 9.1875 
C 16.40625 14.875 19.09375 22.546875 21.796875 29.734375 
C 22.90625 32.625 23.5 34.03125 23.5 36.015625 
C 23.5 40.21875 20.5 44 15.59375 44 
C 6.40625 44 2.703125 29.53125 2.703125 28.734375 
C 2.703125 28.34375 3.09375 27.84375 3.796875 27.84375 
C 4.703125 27.84375 4.796875 28.234375 5.203125 29.640625 
C 7.59375 38.015625 11.40625 42.015625 15.296875 42.015625 
C 16.203125 42.015625 17.90625 42.015625 17.90625 38.71875 
C 17.90625 36.125 16.796875 33.234375 15.296875 29.4375 
C 10.40625 16.359375 10.40625 13.078125 10.40625 10.671875 
C 10.40625 1.203125 17.203125 -1 22.203125 -1 
C 25.09375 -1 28.703125 -0.09375 32.203125 3.59375 
L 32.296875 3.5 
C 30.796875 -2.296875 29.796875 -6.125 26.296875 -10.9375 
z
" id="CMMI12-121"/>
      <path d="M 64.296875 31.515625 
C 65.796875 31.515625 67.296875 31.515625 67.296875 33.203125 
C 67.296875 35 65.59375 35 63.90625 35 
L 8 35 
C 6.296875 35 4.59375 35 4.59375 33.203125 
C 4.59375 31.515625 6.09375 31.515625 7.59375 31.515625 
z
M 63.90625 14 
C 65.59375 14 67.296875 14 67.296875 15.796875 
C 67.296875 17.484375 65.796875 17.484375 64.296875 17.484375 
L 7.59375 17.484375 
C 6.09375 17.484375 4.59375 17.484375 4.59375 15.796875 
C 4.59375 14 6.296875 14 8 14 
z
" id="CMR17-61"/>
      <path d="M 22.796875 20 
C 24.5 19.703125 27.203125 19.109375 27.796875 19 
C 29.09375 18.625 33.59375 17.03125 33.59375 12.234375 
C 33.59375 9.15625 30.796875 1.09375 19.203125 1.09375 
C 17.09375 1.09375 9.59375 1.09375 7.59375 6.8125 
C 11.59375 6.3125 13.59375 9.421875 13.59375 11.640625 
C 13.59375 13.75 12.203125 14.84375 10.203125 14.84375 
C 8 14.84375 5.09375 13.140625 5.09375 8.625 
C 5.09375 2.703125 11.09375 -1 19.09375 -1 
C 34.296875 -1 38.796875 10.171875 38.796875 15.375 
C 38.796875 16.859375 38.796875 19.65625 35.59375 22.84375 
C 33.09375 25.25 30.703125 25.75 25.296875 26.84375 
C 22.59375 27.4375 18.296875 28.34375 18.296875 32.828125 
C 18.296875 34.828125 20.09375 42.015625 29.59375 42.015625 
C 33.796875 42.015625 37.90625 40.453125 38.90625 37 
C 34.5 37 34.296875 33.203125 34.296875 33.109375 
C 34.296875 31 36.203125 30.40625 37.09375 30.40625 
C 38.5 30.40625 41.296875 31.484375 41.296875 35.640625 
C 41.296875 39.765625 37.5 44 29.703125 44 
C 16.59375 44 13.09375 33.75 13.09375 29.671875 
C 13.09375 22.09375 20.5 20.5 22.796875 20 
z
" id="CMMI12-115"/>
      <path d="M 28.296875 14.265625 
C 28.296875 14.765625 27.90625 15.171875 27.296875 15.171875 
C 26.40625 15.171875 26.296875 14.875 25.796875 13.171875 
C 23.203125 4.09375 19.09375 1 15.796875 1 
C 14.59375 1 13.203125 1.296875 13.203125 4.296875 
C 13.203125 6.984375 14.40625 9.984375 15.5 12.96875 
L 22.5 31.53125 
C 22.796875 32.328125 23.5 34.125 23.5 36.015625 
C 23.5 40.21875 20.5 44 15.59375 44 
C 6.40625 44 2.703125 29.53125 2.703125 28.734375 
C 2.703125 28.34375 3.09375 27.84375 3.796875 27.84375 
C 4.703125 27.84375 4.796875 28.234375 5.203125 29.625 
C 7.59375 37.9375 11.40625 41.90625 15.296875 41.90625 
C 16.203125 41.90625 17.90625 41.90625 17.90625 38.71875 
C 17.90625 36.125 16.59375 32.828125 15.796875 30.640625 
L 8.796875 12.078125 
C 8.203125 10.484375 7.59375 8.875 7.59375 7.078125 
C 7.59375 2.59375 10.703125 -1 15.5 -1 
C 24.703125 -1 28.296875 13.578125 28.296875 14.265625 
z
M 27.5 62.703125 
C 27.5 64.203125 26.296875 66 24.09375 66 
C 21.796875 66 19.203125 63.796875 19.203125 61.203125 
C 19.203125 58.71875 21.296875 57.921875 22.5 57.921875 
C 25.203125 57.921875 27.5 60.515625 27.5 62.703125 
z
" id="CMMI12-105"/>
      <path d="M 20.59375 29.234375 
C 20.796875 29.84375 23.296875 34.828125 27 38.015625 
C 29.59375 40.40625 33 42.015625 36.90625 42.015625 
C 40.90625 42.015625 42.296875 39.015625 42.296875 35.03125 
C 42.296875 29.34375 38.203125 17.96875 36.203125 12.578125 
C 35.296875 10.171875 34.796875 8.875 34.796875 7.078125 
C 34.796875 2.59375 37.90625 -1 42.703125 -1 
C 52 -1 55.5 13.671875 55.5 14.265625 
C 55.5 14.765625 55.09375 15.171875 54.5 15.171875 
C 53.59375 15.171875 53.5 14.875 53 13.171875 
C 50.703125 4.984375 46.90625 1 43 1 
C 42 1 40.40625 1 40.40625 4.203125 
C 40.40625 6.703125 41.5 9.703125 42.09375 11.09375 
C 44.09375 16.609375 48.296875 27.8125 48.296875 33.515625 
C 48.296875 39.5 44.796875 44 37.203125 44 
C 28.296875 44 23.59375 37.734375 21.796875 35.234375 
C 21.5 40.90625 17.40625 44 13 44 
C 9.796875 44 7.59375 42.109375 5.90625 38.71875 
C 4.09375 35.125 2.703125 29.140625 2.703125 28.734375 
C 2.703125 28.34375 3.09375 27.84375 3.796875 27.84375 
C 4.59375 27.84375 4.703125 27.9375 5.296875 30.234375 
C 6.90625 36.328125 8.703125 42.015625 12.703125 42.015625 
C 15 42.015625 15.796875 40.40625 15.796875 37.421875 
C 15.796875 35.21875 14.796875 31.328125 14.09375 28.234375 
L 11.296875 17.46875 
C 10.90625 15.5625 9.796875 11.078125 9.296875 9.28125 
C 8.59375 6.6875 7.5 2 7.5 1.5 
C 7.5 0.09375 8.59375 -1 10.09375 -1 
C 11.296875 -1 12.703125 -0.40625 13.5 1.09375 
C 13.703125 1.59375 14.59375 5.09375 15.09375 7.078125 
L 17.296875 16.0625 
z
" id="CMMI12-110"/>
      <path d="M 34.09375 5.78125 
C 35.40625 0.203125 40.203125 -1 42.59375 -1 
C 45.796875 -1 48.203125 1.09375 49.796875 4.484375 
C 51.5 8.078125 52.796875 13.96875 52.796875 14.265625 
C 52.796875 14.765625 52.40625 15.171875 51.796875 15.171875 
C 50.90625 15.171875 50.796875 14.671875 50.40625 13.171875 
C 48.59375 6.28125 46.796875 1 42.796875 1 
C 39.796875 1 39.796875 4.296875 39.796875 5.59375 
C 39.796875 7.890625 40.09375 8.875 41.09375 13.078125 
C 41.796875 15.765625 42.5 18.453125 43.09375 21.25 
L 47.203125 37.515625 
C 47.90625 40.015625 47.90625 40.21875 47.90625 40.515625 
C 47.90625 42.015625 46.703125 43.015625 45.203125 43.015625 
C 42.296875 43.015625 41.59375 40.515625 41 38.015625 
C 40 34.125 34.59375 12.671875 33.90625 9.1875 
C 33.796875 9.1875 29.90625 1 22.59375 1 
C 17.40625 1 16.40625 5.484375 16.40625 9.1875 
C 16.40625 14.875 19.203125 22.84375 21.796875 29.53125 
C 23 32.734375 23.5 34.03125 23.5 36.015625 
C 23.5 40.3125 20.40625 44 15.59375 44 
C 6.40625 44 2.703125 29.53125 2.703125 28.734375 
C 2.703125 28.34375 3.09375 27.84375 3.796875 27.84375 
C 4.703125 27.84375 4.796875 28.234375 5.203125 29.625 
C 7.59375 38.140625 11.5 41.90625 15.296875 41.90625 
C 16.296875 41.90625 17.90625 41.90625 17.90625 38.71875 
C 17.90625 36.125 16.796875 33.234375 15.296875 29.4375 
C 10.90625 17.5625 10.40625 13.765625 10.40625 10.78125 
C 10.40625 0.59375 18.09375 -1 22.203125 -1 
C 28.59375 -1 32.09375 3.390625 34.09375 5.78125 
z
" id="CMMI12-117"/>
      <path d="M 30.59375 -24.390625 
C 30.59375 -24.296875 30.59375 -24.09375 30.296875 -23.796875 
C 25.703125 -19.125 13.40625 -6.359375 13.40625 24.703125 
C 13.40625 55.765625 25.5 68.421875 30.40625 73.390625 
C 30.40625 73.5 30.59375 73.703125 30.59375 74 
C 30.59375 74.296875 30.296875 74.5 29.90625 74.5 
C 28.796875 74.5 20.296875 67.125 15.40625 56.15625 
C 10.40625 45.109375 9 34.359375 9 24.8125 
C 9 17.625 9.703125 5.484375 15.703125 -7.359375 
C 20.5 -17.734375 28.703125 -25 29.90625 -25 
C 30.40625 -25 30.59375 -24.796875 30.59375 -24.390625 
z
" id="CMR17-40"/>
      <path d="M 26.296875 24.703125 
C 26.296875 31.875 25.59375 44.015625 19.59375 56.859375 
C 14.796875 67.234375 6.59375 74.5 5.40625 74.5 
C 5.09375 74.5 4.703125 74.390625 4.703125 73.890625 
C 4.703125 73.703125 4.796875 73.59375 4.90625 73.390625 
C 9.703125 68.40625 21.90625 55.75 21.90625 24.75 
C 21.90625 -6.359375 9.796875 -19.015625 4.90625 -24.015625 
C 4.796875 -24.203125 4.703125 -24.3125 4.703125 -24.5 
C 4.703125 -25 5.09375 -25 5.40625 -25 
C 6.5 -25 15 -17.625 19.90625 -6.65625 
C 24.90625 4.390625 26.296875 15.140625 26.296875 24.703125 
z
" id="CMR17-41"/>
     </defs>
     <g transform="translate(13.313574 204.89242)rotate(-90)scale(0.13 -0.13)">
      <use transform="scale(0.996264)" xlink:href="#CMMI12-121"/>
      <use transform="translate(78.812789 0)scale(0.996264)" xlink:href="#CMR17-61"/>
      <use transform="translate(178.201587 0)scale(0.996264)" xlink:href="#CMMI12-115"/>
      <use transform="translate(224.151634 0)scale(0.996264)" xlink:href="#CMMI12-105"/>
      <use transform="translate(257.430236 0)scale(0.996264)" xlink:href="#CMMI12-110"/>
      <use transform="translate(315.660283 0)scale(0.996264)" xlink:href="#CMMI12-117"/>
      <use transform="translate(371.180613 0)scale(0.996264)" xlink:href="#CMMI12-115"/>
      <use transform="translate(417.130661 0)scale(0.996264)" xlink:href="#CMR17-40"/>
      <use transform="translate(452.411428 0)scale(0.996264)" xlink:href="#CMMI12-120"/>
      <use transform="translate(507.845488 0)scale(0.996264)" xlink:href="#CMR17-41"/>
     </g>
    </g>
   </g>
   <g id="line2d_150">
    <path clip-path="url(#pefe8be1a68)" d="M 77.214199 155.997293 
L 81.364612 179.94865 
L 85.515025 203.560439 
L 89.665438 226.101291 
L 93.815852 246.873006 
L 97.966265 265.232186 
L 102.116678 280.610159 
L 106.267091 292.530595 
L 110.417505 300.624262 
L 114.567918 304.64046 
L 118.718331 304.454788 
L 122.868744 300.072997 
L 127.019157 291.630813 
L 131.169571 279.38973 
L 135.319984 263.728913 
L 139.470397 245.133453 
L 143.62081 224.179339 
L 147.771224 201.515621 
L 151.921637 177.844304 
L 156.07205 153.8986 
L 160.222463 130.420222 
L 164.372876 108.13641 
L 168.52329 87.737398 
L 172.673703 69.855042 
L 176.824116 55.043243 
L 180.974529 43.760795 
L 185.124943 36.357169 
L 189.275356 33.061689 
L 193.425769 33.976434 
L 197.576182 39.073069 
L 201.726595 48.193727 
L 205.877009 61.055897 
L 210.027422 77.261177 
L 214.177835 96.307611 
L 218.328248 117.60524 
L 222.478662 140.494376 
L 226.629075 164.266031 
L 230.779488 188.183883 
L 234.929901 211.507084 
L 239.080315 233.5132 
L 243.230728 253.520599 
L 247.381141 270.909554 
L 251.531554 285.141447 
L 255.681967 295.775448 
L 259.832381 302.482171 
L 263.982794 305.053876 
L 268.133207 303.410907 
L 272.28362 297.604152 
L 276.434034 287.813476 
L 280.584447 274.342142 
L 284.73486 257.607422 
L 288.885273 238.127671 
L 293.035686 216.506269 
L 297.1861 193.412934 
L 301.336513 169.562979 
L 305.486926 145.695149 
L 309.637339 122.548747 
L 313.787753 100.840726 
L 317.938166 81.243488 
L 322.088579 64.364054 
L 326.238992 50.725259 
L 330.389405 40.749563 
L 334.539819 34.745961 
L 338.690232 32.900414 
L 342.840645 35.270085 
L 346.991058 41.781577 
L 351.141472 52.233195 
L 355.291885 66.301205 
L 359.442298 83.549851 
L 363.592711 103.444862 
L 367.743124 125.369993 
L 371.893538 148.646119 
L 376.043951 172.552266 
L 380.194364 196.347946 
L 384.344777 219.296094 
L 388.495191 240.685895 
L 392.645604 259.854805 
L 396.796017 276.209071 
L 400.94643 289.242124 
L 405.096843 298.550267 
L 409.247257 303.845183 
L 413.39767 304.962862 
L 417.548083 301.868685 
L 421.698496 294.658493 
L 425.84891 283.555621 
L 429.999323 268.903977 
L 434.149736 251.157394 
L 438.300149 230.865566 
L 442.450562 208.657031 
L 446.600976 185.219692 
L 450.751389 161.279515 
L 454.901802 137.578043 
L 459.052215 114.849423 
L 463.202629 93.79767 
L 467.353042 75.074858 
L 471.503455 59.26092 
L 475.653868 46.845691 
L 479.804281 38.21373 
L 483.954695 33.632409 
L 488.105108 33.243634 
" style="fill:none;stroke:#0c5da5;stroke-linecap:square;stroke-width:1.2;"/>
   </g>
   <g id="line2d_151">
    <defs>
     <path d="M -3 3 
L 3 -3 
M -3 -3 
L 3 3 
" id="me783b01fe5" style="stroke:#ff2c00;"/>
    </defs>
    <g clip-path="url(#pefe8be1a68)">
     <use style="fill:#ff2c00;stroke:#ff2c00;" x="77.214199" xlink:href="#me783b01fe5" y="155.997293"/>
     <use style="fill:#ff2c00;stroke:#ff2c00;" x="79.990646" xlink:href="#me783b01fe5" y="172.020865"/>
     <use style="fill:#ff2c00;stroke:#ff2c00;" x="90.160804" xlink:href="#me783b01fe5" y="228.68664"/>
     <use style="fill:#ff2c00;stroke:#ff2c00;" x="125.073179" xlink:href="#me783b01fe5" y="296.080868"/>
     <use style="fill:#ff2c00;stroke:#ff2c00;" x="139.808362" xlink:href="#me783b01fe5" y="243.507057"/>
     <use style="fill:#ff2c00;stroke:#ff2c00;" x="163.53692" xlink:href="#me783b01fe5" y="112.494644"/>
     <use style="fill:#ff2c00;stroke:#ff2c00;" x="188.035355" xlink:href="#me783b01fe5" y="33.607361"/>
     <use style="fill:#ff2c00;stroke:#ff2c00;" x="197.095675" xlink:href="#me783b01fe5" y="38.272897"/>
     <use style="fill:#ff2c00;stroke:#ff2c00;" x="199.468665" xlink:href="#me783b01fe5" y="42.746946"/>
     <use style="fill:#ff2c00;stroke:#ff2c00;" x="202.944757" xlink:href="#me783b01fe5" y="51.596597"/>
     <use style="fill:#ff2c00;stroke:#ff2c00;" x="261.445892" xlink:href="#me783b01fe5" y="303.980502"/>
     <use style="fill:#ff2c00;stroke:#ff2c00;" x="273.387869" xlink:href="#me783b01fe5" y="295.377887"/>
     <use style="fill:#ff2c00;stroke:#ff2c00;" x="273.555618" xlink:href="#me783b01fe5" y="295.015256"/>
     <use style="fill:#ff2c00;stroke:#ff2c00;" x="281.103224" xlink:href="#me783b01fe5" y="272.419142"/>
     <use style="fill:#ff2c00;stroke:#ff2c00;" x="306.536578" xlink:href="#me783b01fe5" y="139.74435"/>
     <use style="fill:#ff2c00;stroke:#ff2c00;" x="322.467717" xlink:href="#me783b01fe5" y="62.976516"/>
     <use style="fill:#ff2c00;stroke:#ff2c00;" x="325.36407" xlink:href="#me783b01fe5" y="53.308216"/>
     <use style="fill:#ff2c00;stroke:#ff2c00;" x="329.158832" xlink:href="#me783b01fe5" y="43.304674"/>
     <use style="fill:#ff2c00;stroke:#ff2c00;" x="344.23613" xlink:href="#me783b01fe5" y="37.004663"/>
     <use style="fill:#ff2c00;stroke:#ff2c00;" x="371.688749" xlink:href="#me783b01fe5" y="147.476829"/>
     <use style="fill:#ff2c00;stroke:#ff2c00;" x="384.458966" xlink:href="#me783b01fe5" y="219.908597"/>
     <use style="fill:#ff2c00;stroke:#ff2c00;" x="392.411493" xlink:href="#me783b01fe5" y="258.843257"/>
     <use style="fill:#ff2c00;stroke:#ff2c00;" x="399.481714" xlink:href="#me783b01fe5" y="285.049516"/>
     <use style="fill:#ff2c00;stroke:#ff2c00;" x="486.528954" xlink:href="#me783b01fe5" y="32.893876"/>
     <use style="fill:#ff2c00;stroke:#ff2c00;" x="488.105108" xlink:href="#me783b01fe5" y="33.243634"/>
    </g>
   </g>
   <g id="line2d_152">
    <path clip-path="url(#pefe8be1a68)" d="M 77.214199 155.997293 
L 81.364612 172.020865 
L 85.515025 228.68664 
L 89.665438 228.68664 
L 93.815852 228.68664 
L 97.966265 228.68664 
L 102.116678 228.68664 
L 106.267091 228.68664 
L 110.417505 296.080868 
L 114.567918 296.080868 
L 118.718331 296.080868 
L 122.868744 296.080868 
L 127.019157 296.080868 
L 131.169571 296.080868 
L 135.319984 243.507057 
L 139.470397 243.507057 
L 143.62081 243.507057 
L 147.771224 243.507057 
L 151.921637 112.494644 
L 156.07205 112.494644 
L 160.222463 112.494644 
L 164.372876 112.494644 
L 168.52329 112.494644 
L 172.673703 112.494644 
L 176.824116 33.607361 
L 180.974529 33.607361 
L 185.124943 33.607361 
L 189.275356 33.607361 
L 193.425769 38.272897 
L 197.576182 38.272897 
L 201.726595 51.596597 
L 205.877009 51.596597 
L 210.027422 51.596597 
L 214.177835 51.596597 
L 218.328248 51.596597 
L 222.478662 51.596597 
L 226.629075 51.596597 
L 230.779488 51.596597 
L 234.929901 303.980502 
L 239.080315 303.980502 
L 243.230728 303.980502 
L 247.381141 303.980502 
L 251.531554 303.980502 
L 255.681967 303.980502 
L 259.832381 303.980502 
L 263.982794 303.980502 
L 268.133207 295.377887 
L 272.28362 295.377887 
L 276.434034 295.015256 
L 280.584447 272.419142 
L 284.73486 272.419142 
L 288.885273 272.419142 
L 293.035686 272.419142 
L 297.1861 139.74435 
L 301.336513 139.74435 
L 305.486926 139.74435 
L 309.637339 139.74435 
L 313.787753 139.74435 
L 317.938166 62.976516 
L 322.088579 62.976516 
L 326.238992 53.308216 
L 330.389405 43.304674 
L 334.539819 43.304674 
L 338.690232 37.004663 
L 342.840645 37.004663 
L 346.991058 37.004663 
L 351.141472 37.004663 
L 355.291885 37.004663 
L 359.442298 147.476829 
L 363.592711 147.476829 
L 367.743124 147.476829 
L 371.893538 147.476829 
L 376.043951 147.476829 
L 380.194364 219.908597 
L 384.344777 219.908597 
L 388.495191 258.843257 
L 392.645604 258.843257 
L 396.796017 285.049516 
L 400.94643 285.049516 
L 405.096843 285.049516 
L 409.247257 285.049516 
L 413.39767 285.049516 
L 417.548083 285.049516 
L 421.698496 285.049516 
L 425.84891 285.049516 
L 429.999323 285.049516 
L 434.149736 285.049516 
L 438.300149 285.049516 
L 442.450562 285.049516 
L 446.600976 32.893876 
L 450.751389 32.893876 
L 454.901802 32.893876 
L 459.052215 32.893876 
L 463.202629 32.893876 
L 467.353042 32.893876 
L 471.503455 32.893876 
L 475.653868 32.893876 
L 479.804281 32.893876 
L 483.954695 32.893876 
L 488.105108 33.243634 
" style="fill:none;stroke:#845b97;stroke-dasharray:6,1.2;stroke-dashoffset:0;stroke-width:1.2;"/>
   </g>
   <g id="line2d_153">
    <path clip-path="url(#pefe8be1a68)" d="M 81.364612 171.763347 
L 85.515025 197.715035 
L 89.665438 228.415272 
L 93.815852 221.844067 
L 97.966265 214.181573 
L 102.116678 213.273228 
L 106.267091 219.616833 
L 110.417505 233.081048 
L 114.567918 252.521829 
L 118.718331 274.75588 
L 122.868744 292.708327 
L 127.019157 292.892843 
L 131.169571 266.567996 
L 135.319984 244.164596 
L 139.470397 243.47348 
L 143.62081 236.540293 
L 147.771224 209.718892 
L 151.921637 170.595719 
L 156.07205 135.099295 
L 160.222463 115.790143 
L 164.372876 112.582095 
L 168.52329 111.122381 
L 172.673703 98.581457 
L 176.824116 77.324048 
L 180.974529 55.56202 
L 185.124943 38.644995 
L 189.275356 34.709097 
L 193.425769 41.963039 
L 197.576182 38.72127 
L 201.726595 49.365627 
L 205.877009 51.30753 
L 210.027422 57.179833 
L 214.177835 68.16109 
L 218.328248 83.01062 
L 222.478662 101.119101 
L 226.629075 121.907311 
L 230.779488 144.707912 
L 234.929901 168.78119 
L 239.080315 193.388734 
L 243.230728 217.883007 
L 247.381141 241.773348 
L 251.531554 264.701306 
L 255.681967 286.011604 
L 259.832381 302.008153 
L 263.982794 298.884106 
L 268.133207 289.556894 
L 272.28362 294.606642 
L 276.434034 288.960406 
L 280.584447 272.478406 
L 284.73486 267.399031 
L 288.885273 244.624476 
L 293.035686 209.829542 
L 297.1861 172.841087 
L 301.336513 146.527977 
L 305.486926 139.638808 
L 309.637339 134.338874 
L 313.787753 103.423418 
L 317.938166 72.500131 
L 322.088579 62.908742 
L 326.238992 53.455175 
L 330.389405 45.231753 
L 334.539819 55.901094 
L 338.690232 53.587461 
L 342.840645 38.635769 
L 346.991058 43.096452 
L 351.141472 67.668282 
L 355.291885 98.2249 
L 359.442298 126.411873 
L 363.592711 145.612864 
L 367.743124 150.826011 
L 371.893538 147.504283 
L 376.043951 167.222915 
L 380.194364 208.50072 
L 384.344777 219.910188 
L 388.495191 238.056105 
L 392.645604 258.810875 
L 396.796017 273.35008 
L 400.94643 282.842899 
L 405.096843 267.867748 
L 409.247257 252.619746 
L 413.39767 238.923127 
L 417.548083 226.300744 
L 421.698496 214.24621 
L 425.84891 202.35031 
L 429.999323 190.280785 
L 434.149736 177.769211 
L 438.300149 164.614314 
L 442.450562 150.699587 
L 446.600976 136.021715 
L 450.751389 120.723338 
L 454.901802 105.118688 
L 459.052215 89.695885 
L 463.202629 75.079829 
L 467.353042 61.949477 
L 471.503455 50.922663 
L 475.653868 42.441304 
L 479.804281 36.694881 
L 483.954695 33.597555 
" style="fill:none;stroke:#00b945;stroke-dasharray:3.6,12,1.2,12;stroke-dashoffset:0;stroke-width:1.2;"/>
   </g>
   <g id="line2d_154">
    <path clip-path="url(#pefe8be1a68)" d="M 77.214199 155.997293 
L 81.364612 180.057989 
L 85.515025 203.964147 
L 89.665438 226.195226 
L 93.815852 245.829437 
L 97.966265 262.525701 
L 102.116678 276.320302 
L 106.267091 287.338672 
L 110.417505 295.546819 
L 114.567918 300.639278 
L 118.718331 302.095786 
L 122.868744 299.366821 
L 127.019157 292.099276 
L 131.169571 280.305863 
L 135.319984 264.414706 
L 139.470397 245.190893 
L 143.62081 223.574312 
L 147.771224 200.505819 
L 151.921637 176.807859 
L 156.07205 153.152191 
L 160.222463 130.104358 
L 164.372876 108.202146 
L 168.52329 88.017182 
L 172.673703 70.165857 
L 176.824116 55.266547 
L 180.974529 43.867796 
L 185.124943 36.38292 
L 189.275356 33.057208 
L 193.425769 33.972413 
L 197.576182 39.073233 
L 201.726595 48.193151 
L 205.877009 61.064474 
L 210.027422 77.312787 
L 214.177835 96.448422 
L 218.328248 117.869665 
L 222.478662 140.884532 
L 226.629075 164.746743 
L 230.779488 188.69472 
L 234.929901 211.983452 
L 239.080315 233.905622 
L 243.230728 253.804971 
L 247.381141 271.087305 
L 251.531554 285.232728 
L 255.681967 295.809391 
L 259.832381 302.487256 
L 263.982794 305.050631 
L 268.133207 303.408875 
L 272.28362 297.604049 
L 276.434034 287.813064 
L 280.584447 274.341869 
L 284.73486 257.611738 
L 288.885273 238.141204 
L 293.035686 216.528491 
L 297.1861 193.436623 
L 301.336513 169.578656 
L 305.486926 145.698113 
L 309.637339 122.542431 
L 313.787753 100.83314 
L 317.938166 81.24005 
L 322.088579 64.363938 
L 326.238992 50.725106 
L 330.389405 40.750353 
L 334.539819 34.75396 
L 338.690232 32.917482 
L 342.840645 35.280058 
L 346.991058 41.747506 
L 351.141472 52.115444 
L 355.291885 66.089335 
L 359.442298 83.285038 
L 363.592711 103.209697 
L 367.743124 125.243685 
L 371.893538 148.651982 
L 376.043951 172.637883 
L 380.194364 196.42111 
L 384.344777 219.298081 
L 388.495191 240.645165 
L 392.645604 259.859294 
L 396.796017 276.275339 
L 400.94643 289.126309 
L 405.096843 297.600176 
L 409.247257 300.999015 
L 413.39767 298.947979 
L 417.548083 291.566065 
L 421.698496 279.517779 
L 425.84891 263.910862 
L 429.999323 246.066824 
L 434.149736 227.239082 
L 438.300149 208.368932 
L 442.450562 189.950662 
L 446.600976 172.036665 
L 450.751389 154.369387 
L 454.901802 136.593876 
L 459.052215 118.488816 
L 463.202629 100.15482 
L 467.353042 82.112362 
L 471.503455 65.283913 
L 475.653868 50.861732 
L 479.804281 40.090002 
L 483.954695 34.012016 
L 488.105108 33.243634 
" style="fill:none;stroke:#ff9500;stroke-dasharray:6,6;stroke-dashoffset:0;stroke-width:1.2;"/>
   </g>
   <g id="patch_3">
    <path d="M 56.669653 318.661876 
L 56.669653 19.285876 
" style="fill:none;stroke:#000000;stroke-linecap:square;stroke-linejoin:miter;stroke-width:0.5;"/>
   </g>
   <g id="patch_4">
    <path d="M 508.649653 318.661876 
L 508.649653 19.285876 
" style="fill:none;stroke:#000000;stroke-linecap:square;stroke-linejoin:miter;stroke-width:0.5;"/>
   </g>
   <g id="patch_5">
    <path d="M 56.669653 318.661876 
L 508.649653 318.661876 
" style="fill:none;stroke:#000000;stroke-linecap:square;stroke-linejoin:miter;stroke-width:0.5;"/>
   </g>
   <g id="patch_6">
    <path d="M 56.669653 19.285876 
L 508.649653 19.285876 
" style="fill:none;stroke:#000000;stroke-linecap:square;stroke-linejoin:miter;stroke-width:0.5;"/>
   </g>
   <g id="text_20">
    <!-- Example of interpolations on unstructured data -->
    <defs>
     <path d="M 60.703125 25.234375 
L 58.90625 25.234375 
C 56.703125 10.5625 55.40625 2.59375 37.796875 2.59375 
L 23.90625 2.59375 
C 19.90625 2.59375 19.703125 3.078125 19.703125 6.46875 
L 19.703125 34 
L 29.09375 34 
C 38.5 34 39.40625 30.625 39.40625 22.34375 
L 41.203125 22.34375 
L 41.203125 48.140625 
L 39.40625 48.140625 
C 39.40625 39.953125 38.5 36.59375 29.09375 36.59375 
L 19.703125 36.59375 
L 19.703125 61.140625 
C 19.703125 64.5 19.90625 65 23.90625 65 
L 37.59375 65 
C 53.09375 65 54.90625 58.890625 56.296875 45.765625 
L 58.09375 45.765625 
L 55.703125 67.578125 
L 5.09375 67.578125 
L 5.09375 65 
C 12 65 13.09375 65 13.09375 60.53125 
L 13.09375 7.046875 
C 13.09375 2.59375 12 2.59375 5.09375 2.59375 
L 5.09375 0 
L 57.09375 0 
z
" id="CMR17-69"/>
     <path d="M 26 23.078125 
C 29 26.96875 32.40625 31.34375 35.203125 34.625 
C 38.5 38.40625 42.296875 40 46.703125 40 
L 46.703125 42.59375 
C 45 42.59375 41.5 42.59375 39.703125 42.59375 
C 37 42.59375 33.90625 42.59375 31.59375 42.6875 
L 31.59375 40.09375 
C 33 39.890625 33.796875 38.890625 33.796875 37.5 
C 33.796875 35.703125 32.796875 34.609375 32.296875 33.921875 
L 24.90625 24.578125 
L 16.09375 36.03125 
C 15.203125 37.125 15.203125 37.3125 15.203125 37.8125 
C 15.203125 39.015625 16.203125 40 17.90625 40 
L 17.90625 42.6875 
C 15.5 42.59375 11.203125 42.59375 8.703125 42.59375 
C 6 42.59375 2.796875 42.59375 0.59375 42.6875 
L 0.59375 40 
C 6 40 7.203125 39.59375 9.59375 36.609375 
L 21.09375 21.796875 
C 21.296875 21.59375 21.796875 21 21.796875 20.703125 
C 21.796875 20.296875 13.09375 9.671875 12 8.28125 
C 7.5 2.890625 2.796875 2.5 0.09375 2.5 
L 0.09375 0 
C 1.796875 0 5.296875 0 7.09375 0 
C 9.09375 0 13.5 0 15.296875 -0.09375 
L 15.296875 2.5 
C 14.703125 2.59375 13.09375 2.796875 13.09375 5.078125 
C 13.09375 6.875 13.90625 7.96875 14.796875 9.15625 
L 23.09375 19.3125 
L 31.796875 8 
C 32.59375 6.90625 33.796875 5.40625 33.796875 4.703125 
C 33.796875 3.296875 32.59375 2.5 31 2.5 
L 31 -0.09375 
C 33.40625 0 37.703125 0 40.203125 0 
C 42.90625 0 46.09375 0 48.296875 -0.09375 
L 48.296875 2.5 
C 43.296875 2.5 41.796875 2.6875 39.40625 5.78125 
z
" id="CMR17-120"/>
     <path d="M 36 25.828125 
C 36 32.375 36 35.84375 31.796875 39.734375 
C 28.09375 43 23.796875 44 20.40625 44 
C 12.5 44 6.796875 37.609375 6.796875 30.796875 
C 6.796875 27 9.796875 27 10.40625 27 
C 11.703125 27 14 27.78125 14 30.53125 
C 14 33 12.09375 34.078125 10.40625 34.078125 
C 10 34.078125 9.5 33.96875 9.203125 33.875 
C 11.296875 40.5 16.703125 42.40625 20.203125 42.40625 
C 25.203125 42.40625 30.703125 37.953125 30.703125 29.453125 
L 30.703125 25 
C 24.796875 25 17.703125 24.203125 12.09375 21.203125 
C 5.796875 17.703125 4 12.703125 4 8.90625 
C 4 1.203125 13 -1 18.296875 -1 
C 23.796875 -1 28.90625 2.171875 31.09375 7.984375 
C 31.296875 3.640625 34.09375 -0.28125 38.5 -0.28125 
C 40.59375 -0.28125 45.90625 1.09375 45.90625 8.859375 
L 45.90625 14.375 
L 44.09375 14.375 
L 44.09375 8.78125 
C 44.09375 2.78125 41.40625 2 40.09375 2 
C 36 2 36 7.15625 36 11.53125 
z
M 30.703125 13.59375 
C 30.703125 4.953125 24.5 0.59375 19 0.59375 
C 14 0.59375 10.09375 4.296875 10.09375 8.90625 
C 10.09375 11.890625 11.40625 17.1875 17.203125 20.390625 
C 22 23.09375 27.5 23.5 30.703125 23.5 
z
" id="CMR17-97"/>
     <path d="M 67.59375 30.203125 
C 67.59375 35.1875 66.703125 43.59375 54.796875 43.59375 
C 48 43.59375 43.296875 39 41.5 33.609375 
L 41.40625 33.609375 
C 40.203125 41.8125 34.296875 43.59375 28.703125 43.59375 
C 20.796875 43.59375 16.703125 37.5 15.203125 33.5 
L 15.09375 33.5 
L 15.09375 43.59375 
L 3.296875 42.5 
L 3.296875 39.90625 
C 9.203125 39.90625 10.09375 39.296875 10.09375 34.5 
L 10.09375 6.6875 
C 10.09375 2.875 9.703125 2.390625 3.296875 2.390625 
L 3.296875 -0.203125 
C 5.703125 0 10.09375 0 12.703125 0 
C 15.296875 0 19.796875 0 22.203125 -0.203125 
L 22.203125 2.390625 
C 15.796875 2.390625 15.40625 2.78125 15.40625 6.6875 
L 15.40625 25.90625 
C 15.40625 35.109375 21 42 28 42 
C 35.40625 42 36.203125 35.40625 36.203125 30.59375 
L 36.203125 6.6875 
C 36.203125 2.875 35.796875 2.390625 29.40625 2.390625 
L 29.40625 -0.203125 
C 31.796875 0 36.203125 0 38.796875 0 
C 41.40625 0 45.90625 0 48.296875 -0.203125 
L 48.296875 2.390625 
C 41.90625 2.390625 41.5 2.78125 41.5 6.6875 
L 41.5 25.90625 
C 41.5 35.109375 47.09375 42 54.09375 42 
C 61.5 42 62.296875 35.40625 62.296875 30.59375 
L 62.296875 6.6875 
C 62.296875 2.875 61.90625 2.390625 55.5 2.390625 
L 55.5 -0.203125 
C 57.90625 0 62.296875 0 64.90625 0 
C 67.5 0 72 0 74.40625 -0.203125 
L 74.40625 2.390625 
C 68 2.390625 67.59375 2.78125 67.59375 6.6875 
z
" id="CMR17-109"/>
     <path d="M 22 -16.609375 
C 15.59375 -16.609375 15.203125 -16.203125 15.203125 -12.328125 
L 15.203125 6.28125 
C 18.09375 2.09375 22.296875 -0.59375 27.59375 -0.59375 
C 37.59375 -0.59375 47.703125 8.171875 47.703125 21.6875 
C 47.703125 34.234375 39 43.78125 28.703125 43.78125 
C 22.703125 43.78125 17.796875 40.5 15 36.53125 
L 15 43.78125 
L 3.09375 42.6875 
L 3.09375 40.109375 
C 9 40.109375 9.90625 39.5 9.90625 34.734375 
L 9.90625 -12.328125 
C 9.90625 -16.109375 9.5 -16.609375 3.09375 -16.609375 
L 3.09375 -19.1875 
C 5.5 -19 9.90625 -19 12.5 -19 
C 15.09375 -19 19.59375 -19 22 -19.1875 
z
M 15.203125 31.4375 
C 15.203125 32.84375 15.203125 34.921875 19.09375 38.609375 
C 19.59375 39.015625 23 42 28 42 
C 35.296875 42 41.296875 32.9375 41.296875 21.59375 
C 41.296875 10.25 34.90625 1 27 1 
C 23.40625 1 19.5 2.6875 16.5 7.375 
C 15.203125 9.5625 15.203125 10.15625 15.203125 11.75 
z
" id="CMR17-112"/>
     <path d="M 15.296875 68.6875 
L 3.40625 67.59375 
L 3.40625 65 
C 9.296875 65 10.203125 64.40625 10.203125 59.640625 
L 10.203125 6.65625 
C 10.203125 2.875 9.796875 2.390625 3.40625 2.390625 
L 3.40625 -0.203125 
C 5.796875 0 10.203125 0 12.703125 0 
C 15.296875 0 19.703125 0 22.09375 -0.203125 
L 22.09375 2.390625 
C 15.703125 2.390625 15.296875 2.78125 15.296875 6.65625 
z
" id="CMR17-108"/>
     <path d="M 38.09375 23 
C 38.5 23.40625 38.5 23.609375 38.5 24.625 
C 38.5 34.96875 33.09375 44 21.703125 44 
C 11.09375 44 2.703125 33.890625 2.703125 21.609375 
C 2.703125 8.609375 12.203125 -1 22.796875 -1 
C 34 -1 38.40625 9.484375 38.40625 11.5625 
C 38.40625 12.25 37.796875 12.25 37.59375 12.25 
C 36.90625 12.25 36.796875 12.046875 36.40625 10.875 
C 34.203125 4.140625 28.703125 0.796875 23.5 0.796875 
C 19.203125 0.796875 14.90625 3.171875 12.203125 7.5 
C 9.09375 12.546875 9.09375 18.375 9.09375 23 
z
M 9.203125 24.5 
C 9.90625 39.140625 17.59375 42.40625 21.59375 42.40625 
C 28.40625 42.40625 33 35.890625 33.09375 24.5 
z
" id="CMR17-101"/>
     <path d="M 43.09375 21.1875 
C 43.09375 34 33.796875 44 22.90625 44 
C 12 44 2.703125 34 2.703125 21.1875 
C 2.703125 8.609375 12 -1 22.90625 -1 
C 33.796875 -1 43.09375 8.609375 43.09375 21.1875 
z
M 22.90625 0.796875 
C 18.203125 0.796875 14.203125 3.59375 11.90625 7.5 
C 9.40625 11.984375 9.09375 17.59375 9.09375 22 
C 9.09375 26.203125 9.296875 31.40625 11.90625 35.90625 
C 13.90625 39.203125 17.796875 42.40625 22.90625 42.40625 
C 27.40625 42.40625 31.203125 39.90625 33.59375 36.40625 
C 36.703125 31.703125 36.703125 25.109375 36.703125 22 
C 36.703125 18.09375 36.5 12.109375 33.796875 7.296875 
C 31 2.703125 26.703125 0.796875 22.90625 0.796875 
z
" id="CMR17-111"/>
     <path d="M 15.296875 40 
L 26.703125 40 
L 26.703125 42.578125 
L 15.09375 42.578125 
L 15.09375 54.59375 
C 15.09375 62.84375 19.296875 68 23.59375 68 
C 24.90625 68 26.40625 67.609375 27.40625 66.90625 
C 26.59375 66.703125 24.5 66.015625 24.5 63.546875 
C 24.5 60.953125 26.5 60.15625 27.90625 60.15625 
C 29.296875 60.15625 31.296875 60.953125 31.296875 63.546875 
C 31.296875 67.3125 27.703125 69.59375 23.703125 69.59375 
C 18 69.59375 10.203125 64.9375 10.203125 54.390625 
L 10.203125 42.578125 
L 2.203125 42.578125 
L 2.203125 40 
L 10.203125 40 
L 10.203125 6.671875 
C 10.203125 2.875 9.796875 2.390625 3.40625 2.390625 
L 3.40625 -0.203125 
C 5.796875 0 10.40625 0 13 0 
C 15.90625 0 21 0 23.703125 -0.203125 
L 23.703125 2.390625 
C 16.5 2.390625 15.296875 2.390625 15.296875 6.859375 
z
" id="CMR17-102"/>
     <path d="M 15.5 61.078125 
C 15.5 63.265625 13.703125 65.15625 11.40625 65.15625 
C 9.203125 65.15625 7.296875 63.375 7.296875 61.078125 
C 7.296875 58.890625 9.09375 57 11.40625 57 
C 13.59375 57 15.5 58.796875 15.5 61.078125 
z
M 3.796875 42.28125 
L 3.796875 39.703125 
C 9.40625 39.703125 10.203125 39.09375 10.203125 34.328125 
L 10.203125 6.671875 
C 10.203125 2.875 9.796875 2.390625 3.40625 2.390625 
L 3.40625 -0.203125 
C 5.796875 0 10.09375 0 12.59375 0 
C 15 0 19.09375 0 21.40625 -0.203125 
L 21.40625 2.390625 
C 15.5 2.390625 15.296875 2.984375 15.296875 6.5625 
L 15.296875 43.375 
z
" id="CMR17-105"/>
     <path d="M 41.5 30.203125 
C 41.5 35.296875 40.5 43.59375 28.703125 43.59375 
C 20.796875 43.59375 16.703125 37.5 15.203125 33.5 
L 15.09375 33.5 
L 15.09375 43.59375 
L 3.296875 42.5 
L 3.296875 39.90625 
C 9.203125 39.90625 10.09375 39.296875 10.09375 34.5 
L 10.09375 6.6875 
C 10.09375 2.875 9.703125 2.390625 3.296875 2.390625 
L 3.296875 -0.203125 
C 5.703125 0 10.09375 0 12.703125 0 
C 15.296875 0 19.796875 0 22.203125 -0.203125 
L 22.203125 2.390625 
C 15.796875 2.390625 15.40625 2.78125 15.40625 6.6875 
L 15.40625 25.90625 
C 15.40625 35.109375 21 42 28 42 
C 35.40625 42 36.203125 35.40625 36.203125 30.59375 
L 36.203125 6.6875 
C 36.203125 2.875 35.796875 2.390625 29.40625 2.390625 
L 29.40625 -0.203125 
C 31.796875 0 36.203125 0 38.796875 0 
C 41.40625 0 45.90625 0 48.296875 -0.203125 
L 48.296875 2.390625 
C 41.90625 2.390625 41.5 2.78125 41.5 6.6875 
z
" id="CMR17-110"/>
     <path d="M 15.09375 40 
L 29.09375 40 
L 29.09375 42.578125 
L 15.09375 42.578125 
L 15.09375 61 
L 13.296875 61 
C 13.09375 50.703125 9.59375 41.6875 1.09375 41.6875 
L 1.09375 40 
L 9.796875 40 
L 9.796875 12.046875 
C 9.796875 10.15625 9.796875 -1 21.40625 -1 
C 27.296875 -1 30.703125 4.78125 30.703125 12.140625 
L 30.703125 17.8125 
L 28.90625 17.8125 
L 28.90625 12.234375 
C 28.90625 5.375 26.203125 0.796875 22 0.796875 
C 19.09375 0.796875 15.09375 2.78125 15.09375 11.84375 
z
" id="CMR17-116"/>
     <path d="M 15 23.390625 
C 15 33 19.09375 42 26.59375 42 
C 27.296875 42 28 41.90625 28.703125 41.59375 
C 28.703125 41.59375 26.5 40.890625 26.5 38.3125 
C 26.5 35.90625 28.40625 34.90625 29.90625 34.90625 
C 31.09375 34.90625 33.296875 35.609375 33.296875 38.40625 
C 33.296875 41.609375 30.09375 43.59375 26.703125 43.59375 
C 19.09375 43.59375 15.796875 36.203125 14.796875 32.703125 
L 14.703125 32.703125 
L 14.703125 43.59375 
L 3.09375 42.5 
L 3.09375 39.90625 
C 9 39.90625 9.90625 39.296875 9.90625 34.5 
L 9.90625 6.6875 
C 9.90625 2.875 9.5 2.390625 3.09375 2.390625 
L 3.09375 -0.203125 
C 5.5 0 10.09375 0 12.703125 0 
C 15.59375 0 20.703125 0 23.40625 -0.203125 
L 23.40625 2.390625 
C 16.203125 2.390625 15 2.390625 15 6.875 
z
" id="CMR17-114"/>
     <path d="M 30.90625 42.140625 
C 30.90625 43.953125 30.796875 44.046875 30.203125 44.046875 
C 29.796875 44.046875 29.703125 43.953125 28.5 42.453125 
C 28.203125 42.046875 27.296875 41.03125 27 40.640625 
C 23.796875 44.046875 19.296875 44.046875 17.59375 44.046875 
C 6.5 44.046875 2.5 38.234375 2.5 32.4375 
C 2.5 23.40625 12.703125 21.328125 15.59375 20.703125 
C 21.90625 19.421875 24.09375 19.015625 26.203125 17.203125 
C 27.5 16.015625 29.703125 13.8125 29.703125 10.21875 
C 29.703125 6 27.296875 0.59375 18.09375 0.59375 
C 9.40625 0.59375 6.296875 7.1875 4.5 15.953125 
C 4.203125 17.34375 4.203125 17.453125 3.40625 17.453125 
C 2.59375 17.453125 2.5 17.34375 2.5 15.359375 
L 2.5 0.984375 
C 2.5 -0.796875 2.59375 -0.90625 3.203125 -0.90625 
C 3.703125 -0.90625 3.796875 -0.796875 4.296875 0 
C 4.90625 0.890625 6.40625 3.296875 7 4.3125 
C 9 1.609375 12.5 -1 18.09375 -1 
C 28 -1 33.296875 4.421875 33.296875 12.25 
C 33.296875 17.375 30.59375 20.078125 29.296875 21.28125 
C 26.296875 24.390625 22.796875 25.09375 18.59375 25.890625 
C 13.09375 27.109375 6.09375 28.515625 6.09375 34.640625 
C 6.09375 37.234375 7.5 42.765625 17.59375 42.765625 
C 28.296875 42.765625 28.90625 32.71875 29.09375 29.5 
C 29.203125 29 29.703125 28.890625 30 28.890625 
C 30.90625 28.890625 30.90625 29.203125 30.90625 30.90625 
z
" id="CMR17-115"/>
     <path d="M 29.40625 42.078125 
L 29.40625 39.5 
C 35.296875 39.5 36.203125 38.890625 36.203125 34.15625 
L 36.203125 16.125 
C 36.203125 7.8125 31.703125 0.59375 24.296875 0.59375 
C 16.09375 0.59375 15.40625 5.4375 15.40625 10.59375 
L 15.40625 43.171875 
L 3.296875 42.078125 
L 3.296875 39.5 
C 7.296875 39.5 10 39.5 10.09375 35.53125 
L 10.09375 16.53125 
C 10.09375 9.890625 10.09375 5.640625 12.703125 2.859375 
C 14 1.578125 16.5 -1 23.703125 -1 
C 32.203125 -1 35.5 5.890625 36.296875 7.90625 
L 36.40625 7.90625 
L 36.40625 -0.984375 
L 48.296875 -0.984375 
L 48.296875 2 
C 42.40625 2 41.5 2.59375 41.5 7.390625 
L 41.5 43.171875 
z
" id="CMR17-117"/>
     <path d="M 34.90625 35 
C 33 35 30.203125 35 30.203125 31.515625 
C 30.203125 28.71875 32.5 27.921875 33.796875 27.921875 
C 34.5 27.921875 37.40625 28.234375 37.40625 31.625 
C 37.40625 38.546875 30.59375 43.796875 22.90625 43.796875 
C 12.296875 43.796875 3.296875 34.03125 3.296875 21.296875 
C 3.296875 8.0625 12.703125 -1 22.90625 -1 
C 35.296875 -1 38.40625 10.578125 38.40625 11.6875 
C 38.40625 12.09375 38.296875 12.390625 37.59375 12.390625 
C 36.90625 12.390625 36.796875 12.296875 36.40625 10.984375 
C 33.796875 2.8125 28.09375 0.796875 23.796875 0.796875 
C 17.40625 0.796875 9.703125 6.671875 9.703125 21.390625 
C 9.703125 36.53125 17.09375 42 23 42 
C 26.90625 42 32.703125 40.203125 34.90625 35 
z
" id="CMR17-99"/>
     <path d="M 29.203125 67.59375 
L 29.203125 65 
C 35.09375 65 36 64.40625 36 59.6875 
L 36 36.640625 
C 35.59375 37.140625 31.5 43.59375 23.40625 43.59375 
C 13.203125 43.59375 3.296875 34.5 3.296875 21.3125 
C 3.296875 8.203125 12.59375 -1 22.40625 -1 
C 30.90625 -1 35.296875 5.265625 35.796875 5.9375 
L 35.796875 -0.984375 
L 47.90625 -0.984375 
L 47.90625 2 
C 42 2 41.09375 2.59375 41.09375 7.390625 
L 41.09375 68.6875 
z
M 35.796875 11.796875 
C 35.796875 8.796875 34 6.09375 31.703125 4.09375 
C 28.296875 1.09375 24.90625 0.59375 23 0.59375 
C 20.09375 0.59375 9.703125 2.09375 9.703125 21.1875 
C 9.703125 40.8125 21.296875 42 23.90625 42 
C 28.5 42 32.203125 39.40625 34.5 35.796875 
C 35.796875 33.703125 35.796875 33.40625 35.796875 31.609375 
z
" id="CMR17-100"/>
    </defs>
    <g transform="translate(139.850606 13.285876)scale(0.14 -0.14)">
     <use transform="scale(0.996264)" xlink:href="#CMR17-69"/>
     <use transform="translate(62.586301 0)scale(0.996264)" xlink:href="#CMR17-120"/>
     <use transform="translate(110.879216 0)scale(0.996264)" xlink:href="#CMR17-97"/>
     <use transform="translate(156.569693 0)scale(0.996264)" xlink:href="#CMR17-109"/>
     <use transform="translate(233.489283 0)scale(0.996264)" xlink:href="#CMR17-112"/>
     <use transform="translate(284.384653 0)scale(0.996264)" xlink:href="#CMR17-108"/>
     <use transform="translate(309.255712 0)scale(0.996264)" xlink:href="#CMR17-101"/>
     <use transform="translate(379.817338 0)scale(0.996264)" xlink:href="#CMR17-111"/>
     <use transform="translate(425.507816 0)scale(0.996264)" xlink:href="#CMR17-102"/>
     <use transform="translate(483.057294 0)scale(0.996264)" xlink:href="#CMR17-105"/>
     <use transform="translate(507.928353 0)scale(0.996264)" xlink:href="#CMR17-110"/>
     <use transform="translate(556.221269 0)scale(0.996264)" xlink:href="#CMR17-116"/>
     <use transform="translate(591.502036 0)scale(0.996264)" xlink:href="#CMR17-101"/>
     <use transform="translate(631.987697 0)scale(0.996264)" xlink:href="#CMR17-114"/>
     <use transform="translate(667.268465 0)scale(0.996264)" xlink:href="#CMR17-112"/>
     <use transform="translate(720.766273 0)scale(0.996264)" xlink:href="#CMR17-111"/>
     <use transform="translate(766.45675 0)scale(0.996264)" xlink:href="#CMR17-108"/>
     <use transform="translate(791.327809 0)scale(0.996264)" xlink:href="#CMR17-97"/>
     <use transform="translate(837.018286 0)scale(0.996264)" xlink:href="#CMR17-116"/>
     <use transform="translate(872.299054 0)scale(0.996264)" xlink:href="#CMR17-105"/>
     <use transform="translate(897.170112 0)scale(0.996264)" xlink:href="#CMR17-111"/>
     <use transform="translate(942.860589 0)scale(0.996264)" xlink:href="#CMR17-110"/>
     <use transform="translate(993.755959 0)scale(0.996264)" xlink:href="#CMR17-115"/>
     <use transform="translate(1059.633263 0)scale(0.996264)" xlink:href="#CMR17-111"/>
     <use transform="translate(1105.32374 0)scale(0.996264)" xlink:href="#CMR17-110"/>
     <use transform="translate(1186.295076 0)scale(0.996264)" xlink:href="#CMR17-117"/>
     <use transform="translate(1237.190446 0)scale(0.996264)" xlink:href="#CMR17-110"/>
     <use transform="translate(1288.085816 0)scale(0.996264)" xlink:href="#CMR17-115"/>
     <use transform="translate(1323.887154 0)scale(0.996264)" xlink:href="#CMR17-116"/>
     <use transform="translate(1359.167921 0)scale(0.996264)" xlink:href="#CMR17-114"/>
     <use transform="translate(1394.448689 0)scale(0.996264)" xlink:href="#CMR17-117"/>
     <use transform="translate(1445.344059 0)scale(0.996264)" xlink:href="#CMR17-99"/>
     <use transform="translate(1485.829719 0)scale(0.996264)" xlink:href="#CMR17-116"/>
     <use transform="translate(1521.110487 0)scale(0.996264)" xlink:href="#CMR17-117"/>
     <use transform="translate(1572.005857 0)scale(0.996264)" xlink:href="#CMR17-114"/>
     <use transform="translate(1607.286625 0)scale(0.996264)" xlink:href="#CMR17-101"/>
     <use transform="translate(1647.772285 0)scale(0.996264)" xlink:href="#CMR17-100"/>
     <use transform="translate(1728.743621 0)scale(0.996264)" xlink:href="#CMR17-100"/>
     <use transform="translate(1779.638991 0)scale(0.996264)" xlink:href="#CMR17-97"/>
     <use transform="translate(1825.329468 0)scale(0.996264)" xlink:href="#CMR17-116"/>
     <use transform="translate(1860.610236 0)scale(0.996264)" xlink:href="#CMR17-97"/>
    </g>
   </g>
   <g id="legend_1">
    <g id="line2d_155">
     <path d="M 68.369653 35.535876 
L 94.369653 35.535876 
" style="fill:none;stroke:#0c5da5;stroke-linecap:square;stroke-width:1.2;"/>
    </g>
    <g id="line2d_156"/>
    <g id="text_21">
     <!-- function -->
     <g transform="translate(104.769653 40.085876)scale(0.13 -0.13)">
      <use transform="scale(0.996264)" xlink:href="#CMR17-102"/>
      <use transform="translate(27.473512 0)scale(0.996264)" xlink:href="#CMR17-117"/>
      <use transform="translate(78.368882 0)scale(0.996264)" xlink:href="#CMR17-110"/>
      <use transform="translate(129.264252 0)scale(0.996264)" xlink:href="#CMR17-99"/>
      <use transform="translate(169.749912 0)scale(0.996264)" xlink:href="#CMR17-116"/>
      <use transform="translate(205.03068 0)scale(0.996264)" xlink:href="#CMR17-105"/>
      <use transform="translate(229.901739 0)scale(0.996264)" xlink:href="#CMR17-111"/>
      <use transform="translate(275.592216 0)scale(0.996264)" xlink:href="#CMR17-110"/>
     </g>
    </g>
    <g id="line2d_157"/>
    <g id="line2d_158">
     <g>
      <use style="fill:#ff2c00;stroke:#ff2c00;" x="81.369653" xlink:href="#me783b01fe5" y="53.654189"/>
     </g>
    </g>
    <g id="text_22">
     <!-- sample -->
     <g transform="translate(104.769653 58.204189)scale(0.13 -0.13)">
      <use transform="scale(0.996264)" xlink:href="#CMR17-115"/>
      <use transform="translate(35.801338 0)scale(0.996264)" xlink:href="#CMR17-97"/>
      <use transform="translate(81.491815 0)scale(0.996264)" xlink:href="#CMR17-109"/>
      <use transform="translate(158.411405 0)scale(0.996264)" xlink:href="#CMR17-112"/>
      <use transform="translate(209.306774 0)scale(0.996264)" xlink:href="#CMR17-108"/>
      <use transform="translate(234.177833 0)scale(0.996264)" xlink:href="#CMR17-101"/>
     </g>
    </g>
    <g id="line2d_159">
     <path d="M 68.369653 71.772501 
L 94.369653 71.772501 
" style="fill:none;stroke:#845b97;stroke-dasharray:6,1.2;stroke-dashoffset:0;stroke-width:1.2;"/>
    </g>
    <g id="line2d_160"/>
    <g id="text_23">
     <!-- NN -->
     <defs>
      <path d="M 20.5 66.40625 
C 19.796875 67.5 19.703125 67.5 17.796875 67.5 
L 5.09375 67.5 
L 5.09375 65 
L 7 65 
C 11 65 12.796875 64.515625 13.09375 64.40625 
L 13.09375 9.53125 
C 13.09375 7.046875 13.09375 2.390625 5.09375 2.390625 
L 5.09375 -0.203125 
C 7.40625 0 11.59375 0 14.09375 0 
C 16.59375 0 20.796875 0 23.09375 -0.203125 
L 23.09375 2.390625 
C 15.09375 2.390625 15.09375 7.046875 15.09375 9.53125 
L 15.09375 63.015625 
C 15.796875 62.421875 15.796875 62.21875 16.5 61.234375 
L 53.59375 1.1875 
C 54.296875 0 54.59375 0 55.09375 0 
C 56.09375 0 56.09375 0.296875 56.09375 2.171875 
L 56.09375 57.890625 
C 56.09375 60.359375 56.09375 65 64.09375 65 
L 64.09375 67.59375 
C 61.796875 67.5 57.59375 67.5 55.09375 67.5 
C 52.59375 67.5 48.40625 67.5 46.09375 67.59375 
L 46.09375 65 
C 54.09375 65 54.09375 60.34375 54.09375 57.859375 
L 54.09375 11.921875 
z
" id="CMR17-78"/>
     </defs>
     <g transform="translate(104.769653 76.322501)scale(0.13 -0.13)">
      <use transform="scale(0.996264)" xlink:href="#CMR17-78"/>
      <use transform="translate(69.07243 0)scale(0.996264)" xlink:href="#CMR17-78"/>
     </g>
    </g>
    <g id="line2d_161">
     <path d="M 68.369653 89.890813 
L 94.369653 89.890813 
" style="fill:none;stroke:#00b945;stroke-dasharray:3.6,12,1.2,12;stroke-dashoffset:0;stroke-width:1.2;"/>
    </g>
    <g id="line2d_162"/>
    <g id="text_24">
     <!-- Shepard -->
     <defs>
      <path d="M 43.796875 67.03125 
C 43.796875 68.8125 43.703125 68.921875 43.09375 68.921875 
C 42.5 68.921875 42.296875 68.515625 41.90625 67.625 
L 38.90625 61.046875 
C 35.09375 66.515625 29.296875 69 23 69 
C 12.796875 69 4.59375 60.953125 4.59375 50.828125 
C 4.59375 47.75 5.296875 43.375 8.703125 39.21875 
C 12.40625 34.65625 15.90625 33.859375 23.90625 31.765625 
C 26.90625 30.96875 31.90625 29.671875 32.90625 29.28125 
C 38.59375 26.90625 41.59375 20.953125 41.59375 15.390625 
C 41.59375 8.234375 36.5 0.59375 27.796875 0.59375 
C 17.09375 0.59375 7.09375 6.546875 6.40625 20.484375 
C 6.296875 22.078125 6.203125 22.171875 5.5 22.171875 
C 4.703125 22.171875 4.59375 22.078125 4.59375 20.078125 
L 4.59375 -0.015625 
C 4.59375 -1.796875 4.703125 -1.90625 5.296875 -1.90625 
C 6 -1.90625 6.203125 -1.40625 7.59375 1.6875 
C 7.703125 1.984375 7.703125 2.1875 9.59375 5.953125 
C 14.59375 -0.609375 23 -2 27.796875 -2 
C 38.703125 -2 46.40625 7.046875 46.40625 17.5625 
C 46.40625 22.71875 44.5 26.6875 43.40625 28.484375 
C 39.203125 34.84375 34.703125 36.03125 29.90625 37.21875 
C 29.203125 37.53125 29 37.53125 23.40625 38.90625 
C 18 40.296875 15.703125 41 13.203125 43.6875 
C 10.40625 46.75 9.40625 49.9375 9.40625 53.109375 
C 9.40625 59.5625 14.59375 66.609375 23.09375 66.609375 
C 33.703125 66.609375 40.296875 59.15625 41.796875 46.765625 
C 42.09375 44.96875 42.203125 44.875 42.90625 44.875 
C 43.796875 44.875 43.796875 45.171875 43.796875 46.859375 
z
" id="CMR17-83"/>
      <path d="M 41.5 30.203125 
C 41.5 35.296875 40.5 43.59375 28.703125 43.59375 
C 20.5 43.59375 16.5 37 15.296875 33.703125 
L 15.203125 33.703125 
L 15.203125 68.6875 
L 3.296875 67.59375 
L 3.296875 65 
C 9.203125 65 10.09375 64.40625 10.09375 59.640625 
L 10.09375 6.65625 
C 10.09375 2.875 9.703125 2.390625 3.296875 2.390625 
L 3.296875 -0.203125 
C 5.703125 0 10.09375 0 12.703125 0 
C 15.296875 0 19.796875 0 22.203125 -0.203125 
L 22.203125 2.390625 
C 15.796875 2.390625 15.40625 2.78125 15.40625 6.6875 
L 15.40625 25.90625 
C 15.40625 35.109375 21 42 28 42 
C 35.40625 42 36.203125 35.40625 36.203125 30.59375 
L 36.203125 6.6875 
C 36.203125 2.875 35.796875 2.390625 29.40625 2.390625 
L 29.40625 -0.203125 
C 31.796875 0 36.203125 0 38.796875 0 
C 41.40625 0 45.90625 0 48.296875 -0.203125 
L 48.296875 2.390625 
C 41.90625 2.390625 41.5 2.78125 41.5 6.6875 
z
" id="CMR17-104"/>
     </defs>
     <g transform="translate(104.769653 94.440813)scale(0.13 -0.13)">
      <use transform="scale(0.996264)" xlink:href="#CMR17-83"/>
      <use transform="translate(50.89537 0)scale(0.996264)" xlink:href="#CMR17-104"/>
      <use transform="translate(101.79074 0)scale(0.996264)" xlink:href="#CMR17-101"/>
      <use transform="translate(142.2764 0)scale(0.996264)" xlink:href="#CMR17-112"/>
      <use transform="translate(193.17177 0)scale(0.996264)" xlink:href="#CMR17-97"/>
      <use transform="translate(238.862247 0)scale(0.996264)" xlink:href="#CMR17-114"/>
      <use transform="translate(274.143015 0)scale(0.996264)" xlink:href="#CMR17-100"/>
     </g>
    </g>
    <g id="line2d_163">
     <path d="M 68.369653 108.009125 
L 94.369653 108.009125 
" style="fill:none;stroke:#ff9500;stroke-dasharray:6,6;stroke-dashoffset:0;stroke-width:1.2;"/>
    </g>
    <g id="line2d_164"/>
    <g id="text_25">
     <!-- RBF -->
     <defs>
      <path d="M 39.203125 33.53125 
C 48.703125 35.4375 56.703125 41.8125 56.703125 49.78125 
C 56.703125 59.140625 46.09375 67.59375 32.09375 67.59375 
L 5.203125 67.59375 
L 5.203125 65 
C 12.09375 65 13.203125 65 13.203125 60.515625 
L 13.203125 6.484375 
C 13.203125 2 12.09375 2 5.203125 2 
L 5.203125 -0.40625 
C 8.09375 -0.40625 13.296875 -0.40625 16.40625 -0.40625 
C 19.5 -0.40625 24.703125 -0.40625 27.59375 -0.40625 
L 27.59375 2 
C 20.703125 2 19.59375 2 19.59375 6.515625 
L 19.59375 33 
L 31.296875 33 
C 37 33 40.203125 30.6875 41.59375 29.390625 
C 45.59375 25.5 45.59375 22.796875 45.59375 16 
C 45.59375 9.296875 45.59375 5.890625 48.59375 2.5 
C 52.40625 -1.59375 57.5 -2 59.703125 -2 
C 67.09375 -2 68.203125 6.1875 68.203125 7.859375 
C 68.203125 8.4375 68.203125 9.140625 67.296875 9.140625 
C 66.5 9.140625 66.40625 8.546875 66.40625 8.15625 
C 65.90625 1.75 63 -0.40625 59.90625 -0.40625 
C 54.40625 -0.40625 53.796875 5.859375 53.203125 11.9375 
C 52.90625 14.03125 52.703125 15.515625 52.5 17.703125 
C 51.90625 22.6875 51.09375 29.953125 39.203125 33.53125 
z
M 31 34.59375 
L 19.59375 34.59375 
L 19.59375 61.140625 
C 19.59375 64.515625 19.796875 65 23.796875 65 
L 31.09375 65 
C 39.40625 65 49.09375 62.140625 49.09375 49.84375 
C 49.09375 37.0625 38.5 34.59375 31 34.59375 
z
" id="CMR17-82"/>
      <path d="M 5.203125 68 
L 5.203125 65.40625 
C 12.09375 65.40625 13.203125 65.40625 13.203125 60.9375 
L 13.203125 7.0625 
C 13.203125 2.59375 12.09375 2.59375 5.203125 2.59375 
L 5.203125 0 
L 39.59375 0 
C 52.40625 0 60.703125 9.109375 60.703125 18.1875 
C 60.703125 27.203125 52.5 34.890625 41.796875 34.890625 
C 51.40625 36.8125 58.09375 43.296875 58.09375 51 
C 58.09375 59.40625 49.90625 68 37 68 
z
M 19.5 36 
L 19.5 61.515625 
C 19.5 64.921875 19.703125 65.40625 23.703125 65.40625 
L 36.5 65.40625 
C 46.40625 65.40625 50.796875 57.40625 50.796875 51.203125 
C 50.796875 43.609375 44.703125 36 33.90625 36 
z
M 23.703125 2.59375 
C 19.703125 2.59375 19.5 3.078125 19.5 6.453125 
L 19.5 34.40625 
L 38 34.40625 
C 48.296875 34.40625 53.296875 25.390625 53.296875 18.15625 
C 53.296875 10.921875 47.59375 2.59375 36.703125 2.59375 
z
" id="CMR17-66"/>
      <path d="M 54.40625 67.578125 
L 5.09375 67.578125 
L 5.09375 65 
C 12 65 13.09375 65 13.09375 60.53125 
L 13.09375 6.96875 
C 13.09375 2.5 12 2.5 5.09375 2.5 
L 5.09375 0 
C 8 0 13.59375 0 16.703125 0 
C 20.796875 0 25.59375 0 29.703125 0 
L 29.703125 2.5 
L 27.5 2.5 
C 19.90625 2.5 19.703125 3.484375 19.703125 7.0625 
L 19.703125 32.421875 
L 28.703125 32.421875 
C 38 32.421875 38.90625 29.140625 38.90625 20.8125 
L 40.703125 20.8125 
L 40.703125 46.671875 
L 38.90625 46.671875 
C 38.90625 38.28125 38 35 28.703125 35 
L 19.703125 35 
L 19.703125 61.109375 
C 19.703125 64.5 19.90625 65 23.90625 65 
L 36.796875 65 
C 51.90625 65 53.59375 58.828125 55 45.5625 
L 56.796875 45.5625 
z
" id="CMR17-70"/>
     </defs>
     <g transform="translate(104.769653 112.559125)scale(0.13 -0.13)">
      <use transform="scale(0.996264)" xlink:href="#CMR17-82"/>
      <use transform="translate(67.791102 0)scale(0.996264)" xlink:href="#CMR17-66"/>
      <use transform="translate(132.979856 0)scale(0.996264)" xlink:href="#CMR17-70"/>
     </g>
    </g>
   </g>
  </g>
 </g>
 <defs>
  <clipPath id="pefe8be1a68">
   <rect height="299.376" width="451.98" x="56.669653" y="19.285876"/>
  </clipPath>
 </defs>
</svg>
